<svg clip-rule="evenodd" fill-rule="evenodd" height="6.16256in" image-rendering="optimizeQuality" shape-rendering="geometricPrecision" text-rendering="geometricPrecision" viewBox="0 0 991 1053" width="5.7998in" xmlns="http://www.w3.org/2000/svg"><path d="m680 980c1-5 2-10 2-15v-74h30v-54-55h-30v-138c0-9-9-17-19-17h-166c50-43 69-113 43-177-24-62-83-99-145-99-20 0-39 4-58 11-81 33-120 124-88 204 10 25 25 45 44 61h-127c-3 0-6 1-9 2h-14c-8 0-15 6-15 14v210c-80-88-128-204-128-332 0-274 222-496 495-496 15 0 30 1 45 2-43 23-70 69-66 120 5 65 60 115 124 115 3 0 7 0 10-1 69-5 120-65 114-133-1-21-8-40-18-57 169 79 287 251 287 450 0 208-129 386-311 459zm-10-530c-28 0-53 19-59 48-8 32 13 65 46 72 5 1 9 2 13 2 28 0 54-20 60-48 4-20-2-41-15-55 7 2 13 3 20 3 9 0 19-2 28-5 45-16 69-65 54-110-13-36-46-59-82-59-10 0-19 2-28 5-46 16-70 65-54 110 5 15 14 27 25 37-3 0-5 0-8 0z" fill="#dcecf1"/><path d="m341 374c-73 30-109 114-80 187 30 74 113 110 187 81 74-30 110-114 80-187-29-74-113-110-187-81z" fill="#f9a140"/><path d="m497 627h-21c54-37 78-109 52-172-22-57-76-91-133-91-18 0-36 3-54 10-73 30-109 114-80 187 11 28 30 50 53 66h-21c-19-16-34-36-44-61-32-80 7-171 88-204 19-7 38-11 58-11 62 0 121 37 145 99 26 64 7 134-43 177z" fill="#cad8dc"/><path d="m476 627h-28c64-29 94-102 68-167-20-51-69-83-121-83-16 0-33 4-49 10-67 27-99 103-72 169 13 33 38 58 67 71h-27c-23-16-42-38-53-66-29-73 7-157 80-187 18-7 36-10 54-10 57 0 111 34 133 91 26 63 2 135-52 172z" fill="#e4943d"/><path d="m448 642c-74 29-157-7-187-81-29-73 7-157 80-187 74-29 158 7 187 81 30 73-6 157-80 187zm-117-295c-89 36-132 137-97 225 36 89 136 132 225 97 89-36 132-137 96-225-35-89-136-132-224-97z" fill="#f4d242"/><path d="m444 541c-4 6-14 11-28 17l-5 2c-6-15-12-30-18-46l6-2c14-6 24-8 31-7 7 2 12 6 16 15 3 8 2 15-2 21zm-47 25c-7-15-13-31-19-46l6-2c6 15 12 30 18 46zm-35-103c5 13 11 27 16 41l-5 2c-6-14-11-27-17-41zm17-7c9-4 16-5 22-3s10 6 13 13 2 13-1 18c-4 6-11 11-22 15l-4 1c-5-13-11-27-16-41zm72 39c-6-4-13-6-23-5 4-5 7-10 7-16 1-5 0-11-2-17-5-11-12-19-23-22-11-2-24-1-40 6l-6 2c-2-5-4-11-6-16s-11-1-9 4 4 10 6 16l-5 2c-2-6-5-11-7-16s-11-1-9 3c3 6 5 11 7 16l-23 10c-3 1-5 2-5 4-1 2-1 4 0 7s3 5 5 5c2 1 6 0 12-3l3-1 41 101-4 2c-6 2-10 4-11 6s-1 4 0 7 3 4 4 5c2 1 5 1 7 0l24-10c2 6 4 11 6 16s11 2 9-3c-2-6-4-11-6-16l6-2 6 15c2 5 11 2 9-3s-4-11-7-16l3-1 10-4c8-3 14-6 19-9 4-3 7-6 10-10 5-6 8-12 9-19s0-14-3-21c-3-8-8-14-14-17z" fill="#f4d242"/><path d="m681 461c-27-6-54 11-60 39-6 27 11 54 38 60 28 6 55-11 61-38 6-28-11-55-39-61z" fill="#f9a140"/><path d="m670 561c-3 0-7 0-10-1 3 1 7 1 10 1zm-10-1h-1c-23-5-40-26-40-49 0 23 17 44 40 49zm-39-60v-1zm60-39c-4-1-7-1-11-1 4 0 7 0 11 1z" fill="#cad8dc"/><path d="m670 561c-3 0-7 0-10-1h-1c-23-5-40-26-40-49 0-4 1-8 2-11v-1c5-23 26-39 49-39 4 0 7 0 11 1 24 5 40 26 40 50 0 3 0 7-1 11-6 24-26 39-50 39zm0-96c-21 0-40 14-45 36-5 25 11 49 35 55 4 0 7 1 10 1 22 0 41-15 45-36 6-25-10-50-35-55-3-1-6-1-10-1z" fill="#e4943d"/><path d="m659 560c-27-6-44-33-38-60 6-28 33-45 60-39 28 6 45 33 39 61-6 27-33 44-61 38zm24-109c-33-7-65 14-72 47-8 32 13 65 46 72 33 8 66-13 73-46s-14-66-47-73z" fill="#f4d242"/><path d="m678 530c-2 1-6 1-11 0l-2-1c1-6 2-11 3-17l3 1c5 1 8 2 10 4s2 4 2 7c-1 3-2 5-5 6zm-19-2c2-6 3-11 4-17h2c-1 6-2 12-4 17zm11-37c-1 5-3 10-4 15h-2c1-5 2-11 4-16zm6 1c3 1 6 2 7 4s2 4 1 6c0 3-2 4-4 5s-5 1-9 0h-1l3-15zm13 26c-1-2-2-4-5-6 2-1 4-2 5-3 1-2 2-3 3-6 1-4 0-8-3-11-2-3-7-5-13-6h-2c1-2 1-4 2-6 0-2-3-3-4-1 0 2-1 4-1 6l-2-1c0-2 1-4 1-6 1-1-3-2-3 0-1 2-1 4-1 6l-9-2c-1 0-2 0-2 0-1 0-1 1-2 2 0 1 0 2 1 3 0 0 2 1 4 1l1 1-8 37h-2c-2-1-3-1-4-1-1 1-1 1-1 2-1 1-1 2 0 3 0 1 1 1 2 1l9 2c-1 2-1 4-2 6 0 2 3 3 4 1 0-2 1-4 1-6h2c0 2-1 4-1 6-1 2 3 3 3 1 1-2 1-4 1-6h2l3 1c3 1 6 1 7 1 2 0 4 0 5-1 3 0 5-2 7-4 1-1 2-4 3-6 1-3 0-6-1-8z" fill="#f4d242"/><path d="m589 23c-62 5-109 60-105 123 5 63 60 110 123 105s110-60 105-123-60-110-123-105z" fill="#f9a140"/><path d="m704 71c-6-2-12-5-19-8-21-25-52-40-87-40-3 0-6 0-9 0-10 1-20 3-29 7-7-1-13-2-20-3 14-7 31-12 49-14h9c44 0 84 23 106 58z" fill="#d2e0e3"/><path d="m598 262c-64 0-119-50-124-115-4-51 23-97 66-120 7 1 13 2 20 3-47 16-80 64-76 116 5 60 55 105 114 105h9c63-5 110-60 105-123-2-25-12-47-27-65 7 3 13 6 19 8 10 17 17 36 18 57 6 68-45 128-114 133-3 1-7 1-10 1z" fill="#cad8dc"/><path d="m598 251c-59 0-109-45-114-105-4-52 29-100 76-116 9-4 19-6 29-7h9c35 0 66 15 87 40 15 18 25 40 27 65 5 63-42 118-105 123-3 0-6 0-9 0zm0-217c-2 0-5 0-8 0-57 4-99 54-95 111 4 55 50 96 103 96 3 0 6 0 8-1 57-4 100-54 96-111-5-54-50-95-104-95z" fill="#e4943d"/><path d="m607 251c-63 5-118-42-123-105-4-63 43-118 105-123 63-5 118 42 123 105s-42 118-105 123zm-19-251c-76 6-132 72-126 148 5 76 71 132 147 126s132-72 126-147c-6-76-72-132-147-127z" fill="#f4d242"/><path d="m628 174c-5 3-13 5-25 6l-5 1c-1-13-2-27-3-40h6c12-1 20 0 25 3 5 2 7 7 8 14s-1 12-6 16zm-42 8c-1-13-2-27-3-40h5l3 39zm-2-87c1 12 2 24 3 35l-5 1c-1-12-2-24-3-36zm15-1c7-1 13 0 17 3s6 7 7 13c0 6-1 10-6 14-4 3-10 5-19 5l-4 1c-1-12-1-24-2-36zm45 47c-3-5-9-8-16-10 4-2 7-6 9-10s3-8 2-13c0-10-5-17-12-22-8-5-18-7-32-6l-4 1c-1-5-1-9-2-14 0-4-7-3-7 1s1 9 1 13l-5 1c0-5-1-9-1-14 0-4-8-3-7 1 0 4 0 9 1 13l-20 2c-2 0-4 1-5 2s-2 3-1 5c0 3 1 5 2 5 2 1 5 2 10 1h3l7 86h-4c-5 1-8 1-9 3-2 1-2 2-2 5 0 2 1 4 2 5s3 1 5 1l20-1c1 4 1 9 2 13 0 4 7 4 7 0 0-5-1-9-1-14h5c0 4 1 9 1 13s8 4 7 0c0-5 0-9-1-14h3l8-1c7 0 13-1 16-2 4-1 7-3 10-5 5-3 9-8 12-13 2-5 3-10 3-16-1-7-3-12-7-16z" fill="#f4d242"/><path d="m590 1050h-424c-10 0-18-7-18-17v-389c0-9 8-17 18-17h497c10 0 19 8 19 17v321c0 47-41 85-92 85z" fill="#60747f"/><path d="m573 1053h-430c-8 0-15-7-15-15v-395c0-8 7-14 15-14h503c9 0 16 6 16 14v327c0 46-40 83-89 83z" fill="#79a7a7"/><path d="m712 890h-150c-31 0-57-24-57-53v-1c0-30 26-54 57-54h150z" fill="#2e4661"/><path d="m712 891h-30v-1h30v-53z" fill="#afbabe"/><path d="m682 891h-20v-1h20z" fill="#526068"/><path d="m662 891h-100c-31 0-57-24-57-54 0 29 26 53 57 53h100z" fill="#5c6f7c"/><path d="m712 890h-30-20-100c-31 0-57-24-57-53v-1l207 1z" fill="#2c3e52"/><path d="m709 310c-42 14-63 60-49 101s59 63 101 49c41-14 63-60 49-101s-60-63-101-49z" fill="#f9a140"/><path d="m735 472c-7 0-13-1-20-3-8-9-19-15-32-18-1 0-3-1-5-1-11-10-20-22-25-37-16-45 8-94 54-110 9-3 18-5 28-5 36 0 69 23 82 59 15 45-9 94-54 110-9 3-19 5-28 5zm0-166c-9 0-17 1-26 4-42 14-63 60-49 101 11 33 42 53 75 53 8 0 17-1 26-4 41-14 63-60 49-101-11-33-42-53-75-53z" fill="#cad8dc"/><path d="m715 469c-14-3-27-10-37-19 2 0 4 1 5 1 13 3 24 9 32 18z" fill="#dfc03f"/><path d="m735 464c-33 0-64-20-75-53-14-41 7-87 49-101 9-3 17-4 26-4 33 0 64 20 75 53 14 41-8 87-49 101-9 3-18 4-26 4zm0-151c-8 0-16 1-24 4-37 13-57 54-44 92 10 29 38 48 68 48 8 0 16-1 23-4 38-13 58-54 45-92-10-29-38-48-68-48z" fill="#e4943d"/><g fill="#f4d242"><path d="m761 460c-42 14-87-8-101-49s7-87 49-101c41-14 87 8 101 49s-8 87-49 101zm-57-165c-50 17-77 71-59 121 17 50 71 76 121 59s76-71 59-121-72-76-121-59z"/><path d="m761 404c-2 4-8 6-16 9l-3 1c-2-8-5-17-8-26l3-1c8-3 14-3 17-3 4 1 7 4 9 9 1 4 1 8-2 11zm-27 13c-3-9-6-17-9-26l4-1c3 9 6 17 9 26zm-16-58c3 8 5 16 8 23l-3 1c-3-7-6-15-8-23zm9-3c5-2 9-2 13-1 3 1 5 3 7 7 1 4 1 8-2 10-2 3-6 6-12 8l-2 1c-3-8-5-16-8-24zm39 23c-3-2-7-3-12-3 2-3 4-6 4-8 1-3 0-7-1-10-2-7-6-11-12-13-6-1-13-1-22 2l-3 1c-1-3-2-6-3-9-1-2-6-1-5 2l3 9-3 1c-1-3-3-6-4-9s-5-1-5 2c2 3 3 6 4 9l-13 4c-2 1-3 2-3 3-1 1-1 2 0 3 0 2 1 3 2 4 1 0 4 0 7-2h2l20 56-2 1c-4 1-6 2-7 3s-1 3 0 4c1 2 1 3 2 3 1 1 3 1 4 0l13-4 3 9c1 2 6 1 5-2s-2-6-3-9l4-1 3 9c1 2 6 1 5-2s-2-6-3-9l1-1 6-1c4-2 8-3 10-5 2-1 4-3 6-5 3-3 5-6 5-10 1-4 1-8 0-12-2-4-4-8-8-10z"/></g></svg>