<svg clip-rule="evenodd" fill-rule="evenodd" height="6.08954in" image-rendering="optimizeQuality" shape-rendering="geometricPrecision" text-rendering="geometricPrecision" viewBox="0 0 475 461" width="6.2746in" xmlns="http://www.w3.org/2000/svg"><path d="m458 96c1-5-6-8-10-9-2 0-4 1-7 0-4-2-6-7-10-9-3-2-7 0-10 1-3 2-6 4-10 4-3 0-6-1-9 1-2 1-3 3-5 4-2 2-4 2-6 2s-5 0-7 1-3 3-3 5z" fill="#eee"/><path d="m398 168h-47v-123h47z" fill="#e5e6e5"/><path d="m398 168h-24v-123h24z" fill="#d7d9d9"/><path d="m373 45h-17v-15h17z" fill="#e5e6e5"/><path d="m373 45h-4v-15h4z" fill="#d7d9d9"/><path d="m399 45h-52v-1h52z" fill="#d7d9d9"/><path d="m364 59h-4v-8h4z" fill="#fefefe"/><path d="m374 63s-5 0-12 0c-6 0-11 0-11 0h11z" fill="#d7d9d9"/><path d="m388 59h-4v-8h4z" fill="#eee"/><path d="m398 63s-5 0-12 0c-6 0-12 0-12 0h12z" fill="#e5e6e5"/><path d="m388 76h-4v-8h4z" fill="#eee"/><path d="m398 79s-5 1-12 1c-6 0-12-1-12-1h12z" fill="#e5e6e5"/><path d="m388 93h-4v-8h4z" fill="#eee"/><path d="m398 97s-5 0-12 0c-6 0-12 0-12 0s6-1 12-1c7 0 12 1 12 1z" fill="#e5e6e5"/><path d="m388 111h-4v-9h4z" fill="#eee"/><path d="m398 114s-5 0-12 0c-6 0-12 0-12 0h12z" fill="#e5e6e5"/><path d="m388 127h-4v-8h4z" fill="#eee"/><path d="m398 131s-5 0-12 0c-6 0-12 0-12 0s6-1 12-1c7 0 12 1 12 1z" fill="#e5e6e5"/><path d="m388 144h-4v-8h4z" fill="#eee"/><path d="m388 161h-4v-8h4z" fill="#eee"/><path d="m398 147c0 1-5 1-12 1-6 0-12 0-12-1h12z" fill="#e5e6e5"/><path d="m364 76h-4v-8h4z" fill="#fefefe"/><path d="m374 80s-5 0-12 0c-6 0-11 0-11 0s5-1 11-1c7 0 12 1 12 1z" fill="#d7d9d9"/><path d="m364 93h-4v-8h4z" fill="#fefefe"/><path d="m374 97s-5 0-12 0c-6 0-11 0-11 0s5-1 11-1c7 0 12 1 12 1z" fill="#d7d9d9"/><path d="m364 110h-4v-8h4z" fill="#fefefe"/><path d="m374 114s-5 0-12 0c-6 0-11 0-11 0s5-1 11-1c7 0 12 1 12 1z" fill="#d7d9d9"/><path d="m364 127h-4v-8h4z" fill="#fefefe"/><path d="m374 131s-5 0-12 0c-6 0-11 0-11 0s5-1 11-1c7 0 12 1 12 1z" fill="#d7d9d9"/><path d="m364 144h-4v-8h4z" fill="#fefefe"/><path d="m374 148s-5 0-12 0c-6 0-11 0-11 0 0-1 5-1 11-1 7 0 12 0 12 1z" fill="#d7d9d9"/><path d="m364 161h-4v-8h4z" fill="#fefefe"/><path d="m175 278h-79v-250h79z" fill="#eee"/><path d="m175 278h-40v-250h40z" fill="#e5e6e5"/><path d="m133 28h-28v-24h28z" fill="#eee"/><path d="m133 28h-7v-24h7z" fill="#e5e6e5"/><path d="m89 28v-1h88v1z" fill="#d7d9d9"/><path d="m118 53h-7v-14h7z" fill="#f7f5f5"/><path d="m135 58c0 1-9 1-20 1-10 0-19 0-19-1h19z" fill="#d7d9d9"/><path d="m158 53h-7v-14h7z" fill="#d7d9d9"/><path d="m175 58c0 1-9 1-20 1s-19 0-19-1h19z" fill="#d7d9d9"/><path d="m158 81h-7v-14h7z" fill="#d7d9d9"/><path d="m175 86c0 1-9 1-20 1s-19 0-19-1h19z" fill="#d7d9d9"/><path d="m158 110h-7v-14h7z" fill="#d7d9d9"/><path d="m175 115s-9 1-20 1-19-1-19-1h19z" fill="#d7d9d9"/><path d="m158 139h-7v-14h7z" fill="#d7d9d9"/><path d="m175 144s-9 0-20 0-19 0-19 0h19z" fill="#d7d9d9"/><path d="m158 167h-7v-14h7z" fill="#d7d9d9"/><path d="m175 172s-9 0-20 0-19 0-19 0h19z" fill="#d7d9d9"/><path d="m158 195h-7v-14h7z" fill="#d7d9d9"/><path d="m158 223h-7v-14h7z" fill="#d7d9d9"/><path d="m175 200s-9 1-20 1-19-1-19-1h19z" fill="#d7d9d9"/><path d="m118 81h-7v-14h7z" fill="#f7f5f5"/><path d="m135 87s-9 0-20 0c-10 0-19 0-19 0h19z" fill="#d7d9d9"/><path d="m118 110h-7v-14h7z" fill="#f7f5f5"/><path d="m135 115s-9 1-20 1c-10 0-19-1-19-1h19z" fill="#d7d9d9"/><path d="m118 138h-7v-14h7z" fill="#f7f5f5"/><path d="m135 144s-9 0-20 0c-10 0-19 0-19 0s9-1 19-1c11 0 20 1 20 1z" fill="#d7d9d9"/><path d="m118 167h-7v-14h7z" fill="#f7f5f5"/><path d="m135 172s-9 0-20 0c-10 0-19 0-19 0h19z" fill="#d7d9d9"/><path d="m118 195h-7v-14h7z" fill="#f7f5f5"/><path d="m135 201s-9 0-20 0c-10 0-19 0-19 0 0-1 9-1 19-1 11 0 20 0 20 1z" fill="#d7d9d9"/><path d="m118 223h-7v-14h7z" fill="#f7f5f5"/><path d="m435 333h-107v-203h107z" fill="#d7d9d9"/><path d="m385 130v203h50v-203z" fill="#e5e6e5"/><path d="m360 172h-10v-23h10z" fill="#eee"/><path d="m360 264h-10v-23h10z" fill="#eee"/><path d="m385 182s-13 0-29 0-28 0-28 0c0-1 12-1 28-1s29 0 29 1z" fill="#eee"/><path d="m360 219h-10v-24h10z" fill="#eee"/><path d="m385 228s-13 0-29 0-28 0-28 0 12-1 28-1 29 1 29 1z" fill="#eee"/><path d="m405 172h-10v-23h10z" fill="#d7d9d9"/><path d="m426 172h-10v-23h10z" fill="#d7d9d9"/><path d="m405 217h-10v-24h10z" fill="#d7d9d9"/><path d="m426 217h-10v-24h10z" fill="#d7d9d9"/><path d="m405 261h-10v-23h10z" fill="#d7d9d9"/><path d="m426 261h-10v-23h10z" fill="#d7d9d9"/><path d="m443 130h-123v-5h123z" fill="#d7d9d9"/><path d="m436 130c0 1-24 1-54 1-29 0-53 0-53-1h53z" fill="#e5e6e5"/><path d="m281 334h-115v-152h115z" fill="#e5e6e5"/><path d="m227 182v152h54v-152z" fill="#d7d9d9"/><path d="m200 228h-10v-25h10z" fill="#eee"/><path d="m200 326h-10v-25h10z" fill="#eee"/><path d="m227 238s-14 0-31 0-30 0-30 0c0-1 13-1 30-1s31 0 31 1z" fill="#eee"/><path d="m200 277h-10v-25h10z" fill="#eee"/><path d="m227 287c0 1-14 1-31 1s-30 0-30-1h30z" fill="#eee"/><path d="m249 228h-11v-25h11z" fill="#eee"/><path d="m271 228h-10v-25h10z" fill="#eee"/><path d="m249 276h-11v-26h11z" fill="#eee"/><path d="m271 276h-10v-26h10z" fill="#eee"/><path d="m249 323h-11v-25h11z" fill="#eee"/><path d="m271 323h-10v-25h10z" fill="#eee"/><path d="m290 182h-133v-5h133z" fill="#d7d9d9"/><path d="m282 183s-26 0-58 0-57 0-57 0c0-1 25-1 57-1s58 0 58 1z" fill="#e5e6e5"/><path d="m165 334h-116l-1-184h116z" fill="#e5e6e5"/><path d="m164 334h-58v-184h58z" fill="#d7d9d9"/><path d="m102 150h-41v-36h41z" fill="#e5e6e5"/><path d="m102 150h-9v-36h9z" fill="#d7d9d9"/><path d="m168 150h-130v-2h130z" fill="#d7d9d9"/><path d="m81 187h-10v-21h10z" fill="#fefefe"/><path d="m106 195s-13 0-29 0-29 0-29 0c0-1 13-1 29-1s29 0 29 1z" fill="#d7d9d9"/><path d="m140 187h-10v-21h10z" fill="#eee"/><path d="m165 195s-13 0-29 0-29 0-29 0c0-1 13-1 29-1s29 0 29 1z" fill="#e5e6e5"/><path d="m140 228h-10v-21h10z" fill="#eee"/><path d="m165 236s-13 0-29 0-29 0-29 0 13-1 29-1 29 1 29 1z" fill="#e5e6e5"/><path d="m140 270h-10v-21h10z" fill="#eee"/><path d="m165 278c0 1-13 1-29 1s-29 0-29-1h29z" fill="#e5e6e5"/><path d="m140 313h-10v-21h10z" fill="#eee"/><path d="m165 321s-13 0-29 0-29 0-29 0 13-1 29-1 29 1 29 1z" fill="#e5e6e5"/><path d="m81 228h-10v-20h10z" fill="#fefefe"/><path d="m106 236c0 1-13 1-29 1s-29 0-29-1h29z" fill="#d7d9d9"/><path d="m81 270h-10v-21h10z" fill="#fefefe"/><path d="m106 278c0 1-13 1-29 1s-29 0-29-1h29z" fill="#d7d9d9"/><path d="m81 312h-10v-21h10z" fill="#fefefe"/><path d="m106 320s-13 1-29 1-29-1-29-1h29z" fill="#d7d9d9"/><path d="m475 334s-105 0-235 0c-131 0-236 0-236 0s105-1 236-1c130 0 235 1 235 1z" fill="#d7d9d9"/><path d="m211 11c0-3-3-5-6-5-1 0-3 0-4 0-3-1-4-5-6-6-2 0-4 0-6 1s-4 2-6 2c-2 1-4 0-6 1-1 0-1 2-2 3-2 0-3 1-4 1-2 0-3 0-4 0-1 1-2 2-2 4z" fill="#eee"/><path d="m333 52c1-6-8-12-15-12-3 0-7 0-10-1-7-2-9-11-16-14-5-2-11 0-16 2-4 3-9 6-15 6-4 0-9-1-14 1-3 2-4 5-7 7s-6 3-10 3c-3 0-7 0-10 2-3 1-6 4-5 8z" fill="#e5e6e5"/><path d="m77 56c1-5-6-8-10-9-2 0-4 1-6 0-5-2-7-7-11-9-3-2-7 0-10 1-3 2-6 4-10 4-3 0-6-1-9 1-2 1-3 3-5 4-2 2-4 2-6 2s-5 0-7 1c-1 1-3 3-3 5z" fill="#eee"/><path d="m395 330h-32c-2 0-4-2-4-4s2-3 4-3h32c2 0 4 1 4 3s-2 4-4 4z" fill="#2c3c42"/><path d="m401 448h-57c-5 0-9-4-9-9v-102c0-5 4-9 9-9h57c5 0 9 4 9 9v102c0 5-4 9-9 9z" fill="#f3786d"/><path d="m401 448h-57c-5 0-9-4-9-9v-102c0-5 4-9 9-9h57c5 0 9 4 9 9v102c0 5-4 9-9 9z" fill="#79a7a7"/><path d="m419 448h-57c-5 0-9-4-9-9v-102c0-5 4-9 9-9h57c5 0 9 4 9 9v102c0 5-4 9-9 9z" fill="#79a7a7"/><path d="m427 428s-16 0-37 0-38 0-38 0h38z" fill="#2c3c42"/><path d="m427 412s-16 0-37 0-38 0-38 0c0-1 17-1 38-1s37 0 37 1z" fill="#2c3c42"/><path d="m427 395s-16 0-37 0-38 0-38 0h38z" fill="#2c3c42"/><path d="m427 378c0 1-16 1-37 1s-38 0-38-1h38z" fill="#2c3c42"/><path d="m427 362s-16 0-37 0-38 0-38 0h38z" fill="#2c3c42"/><path d="m427 345s-16 1-37 1-38-1-38-1h38z" fill="#2c3c42"/><path d="m416 455c0 3-3 6-7 6s-6-3-6-6c0-4 2-7 6-7s7 3 7 7z" fill="#2c3c42"/><path d="m420 455c0 3-3 6-6 6-4 0-7-3-7-6 0-4 3-7 7-7 3 0 6 3 6 7z" fill="#42616a"/><path d="m364 455c0 3-3 6-7 6-3 0-6-3-6-6 0-4 3-7 6-7 4 0 7 3 7 7z" fill="#2c3c42"/><path d="m368 455c0 3-3 6-6 6-4 0-7-3-7-6 0-4 3-7 7-7 3 0 6 3 6 7z" fill="#42616a"/><path d="m344 405h-1c-2 0-4-2-4-4v-36c0-2 2-3 4-3h1c2 0 3 1 3 3v36c0 2-1 4-3 4z" fill="#2c3c42"/><path d="m345 447s0 0-1 0c0 0 0 0 0-1-1 0-2-1-3-2-1-3-2-8-2-13 0-12 0-27 1-44 0-17 1-33 1-44 0-3 0-6 1-8 0-2 1-4 2-5 2-1 3-2 3-2h2s-1 0-2 0c0 0-1 1-2 2s-2 3-3 5v8c-1 11-1 27-2 44 0 17 0 32-1 44 0 5 1 10 3 12 1 3 3 4 3 4z" fill="#2c3c42"/><path d="m66 423c-1 3-5 2-6 1-2-2-3-4-3-6-2-5-3-10-2-15 0-2 1-3 2-4s3-2 4-2c2 1 3 3 4 4 2 5 3 10 3 15 0 3 0 5-2 7z" fill="#79a7a7"/><path d="m63 425c-1 0-3-1-3-1-2-2-3-4-3-6-1-4-2-8-2-12 0-1 0-2 0-3 0-2 1-3 2-4s2-2 3-2h1c2 1 3 3 4 4 2 5 3 10 3 15 0 3 0 5-2 7 0 2-2 2-3 2z" fill="#79a7a7"/><path d="m60 436c-3-1-6-2-10-1-1 0-3 1-4 2s-2 4 0 5h3c2 0 5 0 7 1 1 1 2 3 3 3 1 1 3 0 4-1 0-2 0-3 0-5 0 0 0-2-3-4z" fill="#79a7a7"/><path d="m71 427c-2-2-2-6-1-8 1-3 3-6 5-8s5-4 9-5c1 0 2-1 4-1 1 1 2 1 3 3 1 1 0 3-1 5-2 3-4 6-6 9-2 2-4 5-6 6-3 1-6 1-7-1z" fill="#79a7a7"/><path d="m66 461s0 0 0-1 0-2 0-3 0-3-1-5c0-1-1-3-1-5-1-2-2-4-3-5s-2-2-4-3c-1 0-2-1-3-1h-1 2s1 0 3 1c1 0 2 1 3 3 1 1 2 3 3 5s1 4 2 5v5 3z" fill="#2c3c42"/><path d="m66 459s0 0 0-1v-1c0-2 0-3 0-6 0-5 0-11-1-18s-2-14-3-18c0-1 0-2-1-3 0-1 0-2 0-3v-1c-1 0-1-1-1-1s1 1 1 1v1c0 1 0 2 1 3v3c1 4 3 11 3 18 1 7 1 13 1 18v6 1z" fill="#2c3c42"/><path d="m66 446s0 0 0-1 0-3 1-5c0-1 0-4 1-6s2-5 3-7c2-5 5-9 7-12 1-1 2-1 2-2h1c0-1 0-1 1-1 0 0 1-1 1-1s-2 2-4 4c-3 3-6 7-8 12-1 3-2 5-3 7 0 3-1 5-1 6 0 2-1 4-1 5z" fill="#2c3c42"/><path d="m232 162c-2-2-5-3-7-5-1-2 0-5-2-8-1-2-3-3-4-5-3-3-3-6-3-10 0-8 0-16-2-24s-7-16-14-20h-28c-4 3-7 8-8 13 0 5 0 10-1 15 0 5-1 11-3 15-2 3-4 6-6 9s-3 7-2 10c0 4 2 7 5 9s7 2 11 1c1-1 4 0 6 0 3 0 7 0 8-1l7-7 24 50c2 4 9 4 12 1 4-3 6-8 6-13 1-4 0-9 1-14 1-3 2-6 2-8 0-3 0-6-2-8z" fill="#2c3c42"/><path d="m134 412 2 42h18l1-42z" fill="#c48879"/><path d="m135 448v1s-20 8-20 12h40v-13c-6 3-13 3-20 0z" fill="#f3786d"/><path d="m151 452s1 1 1 2c-1 1-1 1-2 1s-2-1-1-2c0-1 1-1 2-1z" fill="#fefefe"/><path d="m155 461v-3l-39 1s-2 1-1 2z" fill="#2c3c42"/><path d="m135 449c0 1 1 1 2 1 1 1 2 2 2 2s0-1-1-2c-2-1-3-1-3-1z" fill="#2c3c42"/><path d="m131 451s1 1 1 2c1 0 1 1 1 1 1 0 1-1 0-2s-2-1-2-1z" fill="#2c3c42"/><path d="m129 456s0-1-1-2c0-1-1-1-1-1s0 1 1 2c0 0 0 1 1 1z" fill="#2c3c42"/><path d="m186 412 2 42h18l1-42z" fill="#c48879"/><path d="m187 448v1s-20 8-20 12h40v-13c-6 3-13 3-20 0z" fill="#f3786d"/><path d="m202 452c1 0 2 1 2 2-1 1-1 1-2 1s-2-1-1-2c0-1 1-1 2-1z" fill="#fefefe"/><path d="m207 461v-3l-39 1s-2 1-1 2z" fill="#2c3c42"/><path d="m187 449c0 1 1 1 2 1 1 1 2 2 2 2s0-1-1-2c-2-1-3-1-3-1z" fill="#2c3c42"/><path d="m183 451s1 1 1 2c1 0 1 1 1 1 1 0 1-1 0-2s-2-1-2-1z" fill="#2c3c42"/><path d="m180 456c1 0 1-1 0-2 0-1-1-1-1-1s0 1 1 2z" fill="#2c3c42"/><path d="m104 121-34-16-7 8s34 29 38 29c2-4 3-12 3-21z" fill="#c48879"/><path d="m56 98c-1 0-3 0-5 0-4 0-19-2-19-2l-1 1c0 3 14 6 14 6l-4 4c0 1-1 2-1 2v13h1c2 0 2-4 2-4 3-1 15-2 18-2s6-3 6-3l3-8s-14-7-14-7z" fill="#c48879"/><path d="m58 108s0 1-1 1c0 0-1 1-2 1-1 1-2 1-3 1-2 0-3 1-5 1-1 0-3 1-4 2-1 0-1 2-2 3 0 1 1 1 2 1v1c-1-1-1-1-1-1-1 0-1-1-1-2s1-2 2-3 2-1 4-2h4c2 0 3-1 4-1 2-1 3-2 3-2z" fill="#bc6d5c"/><path d="m49 107s0 2-2 3c-1 1-1 1-2 1v1s0 0 0-1 1-1 2-1c1-2 2-3 2-3z" fill="#bc6d5c"/><path d="m54 106s0 0-1 0c0-1-1-1-1-1-1-1-1-1-2-1-3 0-5-1-5-1s2 0 5 1h2c0 1 1 1 1 1 1 1 1 1 1 1z" fill="#bc6d5c"/><path d="m197 226s16 13 17 22c2 9 4 28 4 28l-6 68-1 86h-26l-10-141-14 55-2 81-29 1-6-80 17-114z" fill="#2c3c42"/><path d="m169 234s1 0 1 1c1 0 1 1 1 1-1 1-1 1-2 1-1 1-1 0-2-1v-1c1-1 2-1 2-1s-1 0-1 1v1c0 1 0 1 1 1s1 0 1-1v-1c0-1-1-1-1-1z" fill="#42616a"/><path d="m156 243s0-3 0-5c1-3 2-5 2-5s-1 2-1 5c-1 2-1 5-1 5z" fill="#42616a"/><path d="m153 243s0-3 0-6c1-3 2-5 2-5s-1 2-1 5c-1 3 0 6-1 6z" fill="#42616a"/><path d="m144 247s0 0 1 1h1c1 0 2-1 2-1 1-1 1-3 2-3 0-1 0-2 0-2v2c0 1 0 2-2 3 0 1-1 1-1 1-1 0-2 0-2 0-1 0-1-1-1-1z" fill="#42616a"/><path d="m184 233s0 1 1 3c0 2 2 4 5 6 2 1 5 2 7 2 2-1 4-1 4-1h-1c-1 1-2 1-3 1-2 0-5 0-8-2-2-1-4-4-5-6 0-1 0-2 0-2 0-1 0-1 0-1z" fill="#42616a"/><path d="m183 238c-1 1-1-1-2-3s-1-3-1-3c0-1 1 1 1 3 1 2 2 3 2 3z" fill="#42616a"/><path d="m180 240s-1-1-2-3c0-3-1-5-1-5 1 0 1 2 2 4 0 3 1 4 1 4z" fill="#42616a"/><path d="m178 278s0 0-1 0h-1c-1 0-3-1-4-3-2-2-2-5-3-8 0-3-1-6-2-9-1-7-2-13-2-18-1-2-1-4-1-5v-1c0-1 0-1 0-1v1 1c0 1 1 3 1 5 1 5 2 11 3 18 0 3 1 6 2 9 0 3 1 6 2 8s3 3 4 3z" fill="#42616a"/><path d="m206 350s0 1-1 1c0 0-1 1-2 1-2 1-5 2-8 2-3 1-6 1-8 1-1-1-2-1-3-1h-1 4 8c3-1 6-2 8-2 2-1 3-2 3-2z" fill="#42616a"/><path d="m205 353s-1 0-3 1c-1 1-3 2-6 3s-5 1-7 1c-1 1-2 1-2 1 0-1 1-1 2-1 2 0 4-1 7-2 2 0 5-1 6-2 2-1 3-1 3-1z" fill="#42616a"/><path d="m194 147s-21-6-21-6h-3l-2 38 9 11 9-8 14-22 1-8v-2z" fill="#c48879"/><path d="m200 150s-13 26-18 29c-5 4-5 6-7 4-1-3-4-27-4-27l-1-15-8 1s-14 44-14 51c-1 7-4 38-4 38s9 2 14 1c6 0 32-3 32-3l7-3 7-75z" fill="#d7d9d9"/><path d="m198 219s0 0-1 1h-1c-1 0-2 0-3 0-1 1-2 1-3 1-2 0-5 1-8 1-4 0-7 1-11 1-7 0-14 0-19 0-2 0-4 0-5 0s-1 0-2 1c0 0 0 0 0-1h2 5c5 0 12-1 19-1h11c3-1 6-1 8-1 1 0 2-1 3-1h3s1 0 1-1z" fill="#f3786d"/><path d="m198 210h-1c0 1-1 1-1 1-2 0-4 0-6 0-5 0-11 0-18 1-7 0-14 0-18 0-2 0-4 0-6 0h-1c-1 0-1 0-1 0h1 1 6c4-1 11-1 18-1s13 0 18-1h6 1z" fill="#f3786d"/><path d="m199 198c-1 0-1 0-2 0-1 1-3 1-5 2-2 0-5 1-8 1-3 1-7 1-11 1-7 1-13 0-18 0-3 0-4 0-6-1h-1c-1 0-1 0-1 0h1 1c2 0 4 0 6 1h18c4 0 7-1 11-1 3-1 5-1 8-2 2 0 4-1 5-1z" fill="#f3786d"/><path d="m200 186s-1 0-2 0c-2 1-4 1-6 2-2 0-5 1-8 2s-6 1-10 2c-7 0-14-1-18-3-2 0-4-1-5-2-1 0-1-1-2-1s1 0 2 1c1 0 3 1 5 2 4 2 11 3 18 2 4 0 7-1 10-2 3 0 6-1 8-2 2 0 4-1 6-1h1z" fill="#f3786d"/><path d="m176 183c0 1-1 0-4 0-1 0-2 0-4 0-1 0-3 0-5 0-4-1-6-3-8-5-1 0-2-1-2-1-1-1-1-1-1-1s1 1 3 2 5 3 8 4c2 1 4 1 5 1h4 3z" fill="#f3786d"/><path d="m201 173s-1 0-3 1-5 3-8 4-5 2-7 3-4 1-4 1 2-1 4-1c2-1 4-2 7-3 3-2 6-3 8-4s3-1 3-1z" fill="#f3786d"/><path d="m200 163s-2 2-4 3c-3 2-5 3-6 3 0 0 3-1 5-3 3-2 5-3 5-3z" fill="#f3786d"/><path d="m154 165c1 0 1 1 3 2l6 3c3 1 5 2 7 2h3c0 1-1 1-3 0-2 0-4-1-7-2-2-1-5-2-6-3-2-1-3-2-3-2z" fill="#f3786d"/><path d="m157 152h2c1 1 3 1 5 2s4 2 5 3 1 1 1 1c0 1-2-1-6-3s-7-3-7-3z" fill="#f3786d"/><path d="m134 137-20-10c-2-7-10-11-15-8l4 2s1 18-2 21l-5-3s-3 9 0 12c3 4 8 3 8 3l3-3s1 9 10 15c9 5 24 6 28 11l9-5 1-32z" fill="#42616a"/><path d="m171 140-5 1-4-1s-18 37-19 43c-1 5-4 28-4 28s-5 10-7 14-14 34-14 34-1 10 3 10c4 1 8-1 12 1 3 1 6 1 6 1l3-15s4-18 6-23c1-6 4-16 4-20s0-17 1-20c0-3 5-5 7-7 2-3 7-16 7-22 1-7 4-24 4-24z" fill="#42616a"/><path d="m143 151v1 3 9c1 4 1 7 1 9 0 3 1 4 1 4s0 0-1-1c0-1 0-1 0-3-1-2-1-5-1-9s0-7 0-9c0-1 0-2 0-3s0-1 0-1z" fill="#2c3c42"/><path d="m166 141c1 0 1 0 0 1v4c-1 4-2 8-3 13-1 2-2 5-2 6h-1l6-3c1 1 1 2 1 3v2 1s0 0 0-1 0-2 0-2c0-1-1-2-1-3v1c-2 0-4 1-5 3h-1v-1c1-2 2-4 2-6 2-5 3-10 4-13 0-2 0-3 0-4s0-2 0-1z" fill="#2c3c42"/><path d="m134 271s0 0 0-1c0-1 0-2 0-4 1-2 2-6 3-11 2-9 5-23 8-37 1-8 2-14 4-21 0-3 1-6 2-9s2-5 3-7c2-4 5-7 7-10 0-1 1-1 2-2 0 0 0 0 0-1v1c-1 1-1 1-2 3-2 2-4 5-7 9-1 2-2 5-3 7-1 3-1 6-2 9-1 7-2 14-4 21-3 14-6 28-8 37-1 5-2 9-2 12-1 1-1 2-1 3z" fill="#2c3c42"/><path d="m143 181s2 1 4 2c3 1 4 2 4 2s-2-1-4-2-4-1-4-2z" fill="#42616a"/><path d="m138 212s0 1 1 1c1 1 2 1 4 1l4-4c1-2 1-5 2-7 0-3 0-5 0-7s1-4 1-6 0-3 1-4v-1 1c0 1-1 2-1 4v6c0 2 0 4-1 7 0 2-1 5-2 7s-2 3-4 4-3 0-4-1c0 0-1 0-1-1z" fill="#42616a"/><path d="m162 140s-6 21-8 24c-1 4-9 13-9 13l-1-8 10-29z" fill="#f3786d"/><path d="m149 153-1 4v1l8 2s0 0 1-1l1-3s0 0 0-1h-1l-7-2zm7 8s0 0-1 0l-7-2c-1 0-1 0-1-1 0 0-1-1 0-1l1-4c0-1 1-1 2-1l8 2s0 0 1 1v1l-1 4c-1 0-1 1-2 1z" fill="#fefefe"/><g fill="#2c3c42"><path d="m161 141c0-1 0-1 0-1z"/><path d="m160 143c0-1 0-1 1-1v1z"/><path d="m159 145c0-1 1-1 1-1v1s0 0-1 0z"/><path d="m159 147c0-1 0-1 0-1z"/><path d="m158 149c0-1 0-1 0-1 1 0 1 1 0 1z"/><path d="m157 151c0-1 1-1 1-1v1z"/><path d="m157 153c-1 0-1 0 0 0 0-1 0-1 0-1z"/><path d="m156 155c0-1 0-1 0-1z"/><path d="m155 157c0-1 0-1 1-1v1z"/><path d="m155 159c-1 0-1 0-1 0 1-1 1-1 1-1z"/><path d="m154 161c0-1 0-1 0-1z"/><path d="m153 163s0 0 0-1c1 0 1 0 1 1-1 0-1 0-1 0z"/><path d="m152 165s0 0 0-1h1v1z"/><path d="m151 167s0 0 0-1h1v1z"/><path d="m150 169v-1h1c0 1 0 1-1 1z"/><path d="m149 171v-1h1c0 1 0 1-1 1z"/><path d="m148 172c1 0 1-1 1 0s-1 1-1 0z"/><path d="m148 174c-1 0-1-1-1-1h1z"/><path d="m144 169v1s0 0 0-1z"/><path d="m145 167v1s0 0-1 0c0 0 0 0 0-1z"/><path d="m146 165v1c-1 0-1 0-1 0s0 0 0-1z"/><path d="m146 163v1s0 0 0-1z"/><path d="m147 161v1c-1 0-1 0 0-1z"/><path d="m148 159v1h-1c0-1 1-1 1-1z"/><path d="m148 157c1 0 1 0 1 1-1 0-1 0-1 0 0-1 0-1 0-1z"/><path d="m149 155v1c0-1 0-1 0-1z"/><path d="m150 153v1c-1 0-1 0 0 0 0-1 0-1 0-1z"/><path d="m151 151v1h-1c0-1 1-1 1-1z"/><path d="m151 149c1 0 1 1 1 1-1 0-1 0-1 0 0-1 0-1 0-1z"/><path d="m152 147v1c0-1 0-1 0-1z"/><path d="m153 145v1c-1 0-1 0-1 0 1-1 1-1 1-1z"/><path d="m154 143v1h-1c0-1 0-1 1-1z"/><path d="m154 141s1 1 0 1z"/><path d="m155 140h-1z"/><path d="m160 154v1c0 1-1 2-1 3-1 2-2 5-5 9-2 3-4 6-6 7-1 1-2 2-2 2-1 1-1 1-1 1s1-1 3-3 4-4 6-8c2-3 4-6 5-8 1-3 1-4 1-4z"/><path d="m103 119v2c1 0 1 1 1 2 0 3 0 6-1 10v5c-1 2-1 3-2 4s-2 2-2 2c-1 0-2 0-2 0s2 0 3-2c1-1 2-2 2-4 0-1 1-3 1-5 0-4 0-7 0-10 0-1 0-2 0-2 0-1 0-1 0-2z"/><path d="m111 125v1 1c0 1 1 2 1 2v5c0 2-1 4-1 7-1 2-1 4-2 5-1 2-2 4-2 5-1 1-1 1-1 2-1 0-1 0-1 1-1 0-1 1-1 1s1-2 2-4 2-3 3-5c0-2 1-3 1-6 1-2 1-4 1-6s0-3 0-5c0-3 0-4 0-4z"/></g><path d="m202 152s9 3 12 7 14 56 14 56 5 4 7 9c0 2-1 7-2 8-2 4-13 5-18 5s-13-8-13-8l1-15z" fill="#42616a"/><path d="m201 150s-5 21-6 22c0 1-7 38-5 45 2 6 14 12 12 20-1 8-5 19-3 29s8 12 8 12l11-7s3-13 2-21c-2-8-7-17-7-17s-4-50-4-51c-1-1-3-30-3-30z" fill="#42616a"/><path d="m206 152v2 3c-1 3-2 7-3 12 0 2-1 5-1 7l-1 1v-1c-1-1 0-2-1-4 0-1 0-1-1-2-1 0-2 0-2 1s0 0 0-1h2c1 0 1 1 2 2v4c1-2 1-5 2-7 1-5 2-9 2-12 1-1 1-2 1-3s0-2 0-2z" fill="#2c3c42"/><path d="m208 180v2c1 1 1 3 1 6 0 5 1 12 1 20v11 5c1 1 1 1 1 2s0 1-1 2v3c0 1 1 2 1 3h1v1h1s0 0-1 0c0-1-1-1-1-1-1-1-1-1-1-2 0-2 0-3 0-4s0-1 0-2 0-1 0-2c0-2 0-3 0-5-1-3-1-7-1-11 0-8 0-15 0-20 0-3-1-5-1-6s0-1 0-2z" fill="#2c3c42"/><path d="m208 278s0 0 0-1c0 0 0 0-1 0 0-1-1-1-2-2s-2-3-4-4c0-1-1-2-1-3s0-3 0-4c0-3 0-5 1-8 0-2 0-3 1-5 0-1 0-2 0-2 0-1 0-1 0-2 0 0 0 0 0-1 1-2 1-3 2-5 0-1 0-2 0-3 1-1 1-1 1-2 0-2 0-4-1-6-1-1-2-3-4-4-1-2-2-3-3-5-1-1-2-3-3-5-1-4 0-7 0-11 1-6 2-13 2-18 1-5 1-9 2-12 0-1 0-2 0-3v-1 1 3c0 3-1 7-1 12-1 6-2 12-2 18-1 4-1 7 0 11 0 2 1 3 2 5s3 3 4 4c1 2 2 3 3 5s2 4 2 6c0 0-1 1-1 1v2s-1 1-1 2c0 2-1 4-1 5v1 2c-1 1-1 1-1 2 0 2-1 3-1 5-1 3-1 5-1 8v4c1 1 1 2 2 3s2 3 3 4 2 1 2 2h1z" fill="#2c3c42"/><path d="m210 298c-9 0-20 1-26 9-6 7-6 17-5 26s3 19 11 24c4 2 10 3 15 3 18 0 36-1 53-4 6-1 12-2 16-6 3-4 3-10 3-15 0-7-1-15-1-22 0-5 0-10-4-14-2-2-7-2-11-3-17 0-34 1-51 2z" fill="#79a7a7"/><path d="m195 356h2c2 0 5-1 7-3 1-1 3-2 4-4 1-1 1-3 2-5 1-4 0-9-1-14-1-4-4-9-6-12-2-4-4-7-6-9-3-2-5-3-7-3s-3 0-3 0h1s1-1 2 0c2 0 4 0 7 2s5 6 7 9c2 4 4 8 6 13 1 5 1 10 0 14 0 2-1 4-2 6-1 1-2 2-4 3-2 2-5 3-7 3-1 1-2 0-2 0z" fill="#2c3c42"/><path d="m271 300s-1 0-3 0-5 0-8 1c-4 1-8 3-12 4-5 1-10 1-16 1-5 0-10-1-15-1-5-1-9-1-12-1-2 0-4 0-5 0-2 0-3 0-4 0s-2 0-2 0c-1 0-1 0-1 0h1 2c1 0 2 0 4-1h5c3 1 7 1 12 1 5 1 10 1 15 1 6 1 11 0 16-1l12-3c3-1 6-1 8-1z" fill="#2c3c42"/><path d="m264 300s1 1 1 1c0 1 1 1 1 2 0 0 1 1 0 2-1 0-1 0-2 0 0-1 0-1 0-1 0-1 0-2 0-2 0-1 0-2 0-2v2 1c0 1 1 1 1 1h1c0-1 0-1 0-1-1-1-1-1-1-1-1-1-1-2-1-2z" fill="#2c3c42"/><path d="m270 323s0 0-1 0h-1c-1 1-3 1-5 2-5 1-11 2-18 3s-13 1-18 1c-2 0-4 0-5 0h-1c-1 0-1 0-1 0h1 1 5c5 0 11-1 18-2s13-2 18-3c2 0 4-1 5-1h1z" fill="#2c3c42"/><path d="m246 341s0 0-1 0v3c0 1-1 2-1 3-1 1-2 2-3 3-1 2-2 3-3 3-1 1-2 2-3 2-1 1-1 1-2 1h-1s1 0 3-1c1-1 2-1 3-2l3-3c1-1 2-2 2-3 1-1 1-3 2-3 0-2 0-3 1-3z" fill="#2c3c42"/><path d="m249 346s-2 2-4 3c-1 2-3 3-3 3-1 0 1-1 3-3s4-3 4-3z" fill="#2c3c42"/><path d="m209 356s-1 0-2-1-2-2-2-2 1 1 2 1c1 1 2 2 2 2z" fill="#2c3c42"/><path d="m208 353s0 0-1 0-1-1-1-1h1c1 0 1 1 1 1z" fill="#2c3c42"/><path d="m235 289c-3-1-6-1-8 0-3 0-6 1-8 3-2 1-4 4-3 7h3c1-1 1-3 1-4 1-2 3-3 5-3 2-1 5-1 7 0 3 1 4 4 4 6h3c0-4-1-7-4-9z" fill="#2c3c42"/><path d="m220 274s-2 9-2 10 1 8 1 11c1 1 2 2 3 2 1-1 1-2 1-2s1 2 3 1c1 0 2-2 2-2 1 1 3 0 3-1v-1s1 1 2 1c2-1 2-6 2-6l-2-14-2-47c-7 0-13 1-17 4z" fill="#c48879"/><path d="m218 288c1 0 1 2 1 4 0 1 1 3 0 3 0 0 0-1 0-3-1-2-1-3-1-4z" fill="#bc6d5c"/><path d="m223 289v3c1 2 0 3 0 3s0-1 0-3c0-1-1-3 0-3z" fill="#bc6d5c"/><path d="m222 286c1 1 1 1 1 1-1 0-1 0-1 0 0-1-1-1 0-1z" fill="#bc6d5c"/><path d="m227 288s0 1 1 3v3s-1-1-1-3 0-3 0-3z" fill="#bc6d5c"/><path d="m224 284h1 1s0 1 1 1c-1 0-1 0-1 0-1-1-2-1-2-1z" fill="#bc6d5c"/><path d="m231 286v3 3s0-1 0-3c0-1 0-3 0-3z" fill="#bc6d5c"/><path d="m228 283s0 0 1-1c0 0 0 1 1 1 0 0 1 1 1 1s-1-1-2-1z" fill="#bc6d5c"/><path d="m172 90c4-5 8-6 13-6 7 0 14 2 20 7 4 4 6 11 6 17 0 3-1 5-2 7s-4 4-6 5-3 0-4-2c-1-1-1-2-2-3-2-6-4-12-7-16-4-5-9-9-15-9z" fill="#f3786d"/><path d="m167 102c0-5 1-9 5-12 2-3 5-4 9-5 4 0 9 0 13 2s7 6 7 11c0 2-1 4-1 6 1 1 1 2 1 3-1 0-1 1-2 1s-2 0-3-1c-2-1-4-3-6-5z" fill="#2c3c42"/><path d="m179 92 19 7c2 0 3 2 3 4l-6 42c-1 3-2 6-4 8l-2 2c-6 5-14 3-17-3 0-1 0-1 0-2 0 0 0 0 0-1 0-3 1-6 1-6 0-4 0-6 0-5 0 0-8-3-8-13 0-6 1-14 2-21 1-6 6-14 12-12z" fill="#c48879"/><path d="m168 111c0 1 1 1 1 2 1 0 2-1 2-2 0 0 0-1-1-1s-2 0-2 1z" fill="#2c3c42"/><path d="m168 108c0 1 2 0 3 0s2 1 3 1c0 0 0 0-1-1 0 0-1-1-2-1s-2 0-2 1c-1 0-1 0-1 0z" fill="#2c3c42"/><path d="m182 113s0 1 1 1 2 0 2-1-1-1-2-1c0-1-1 0-1 1z" fill="#2c3c42"/><path d="m183 110h2c2 0 3 1 3 1s0-1-1-1c0 0-1-1-2-1s-1 0-2 1z" fill="#2c3c42"/><path d="m176 120s-1 0-2 0-1 0-1-1c0 0 0 0 0-1 1-1 1-2 2-2 2-4 3-8 3-8s-2 3-4 7c0 1-1 2-1 3 0 0-1 1 0 1v1h1c1 0 2 1 2 0z" fill="#2c3c42"/><path d="m173 138s7 1 15-3c0 0-5 7-15 5z" fill="#bc6d5c"/><path d="m176 124c1-1 2-1 3-1 0 0 1 1 1 1 1 1 1 2 0 2 0 1-1 1-2 0 0 0-1 0-1-1-1 0-1 0-1 0 0-1 0-1 0-1z" fill="#bc6d5c"/><path d="m180 122s0 1-2 2c-1 1-3 1-3 1s1 1 1 1c1 0 2 0 3-1s1-1 1-2c1-1 0-1 0-1z" fill="#2c3c42"/><path d="m183 106s1 0 3 1c2 0 3 1 3 0 0 0 0 0 0-1-1 0-2-1-3-1s-2 0-2 0c-1 0-1 1-1 1z" fill="#2c3c42"/><path d="m169 102h3c1 0 2 1 2 1 0-1 0-1 0-1-1-1-1-1-2-1s-2 0-2 0c-1 1-1 1-1 1z" fill="#2c3c42"/><path d="m196 120c0-1 2-3 2-3 2 0 6 1 6 6-1 7-8 5-8 5s0-5 0-8z" fill="#c48879"/><path d="m198 125s0 1 1 1h1s1-2 1-3 0-1 0-2c0 0 0-1-1-1 0 0 0 0-1 1s0 0 0-1h1c1 0 1 1 2 1v2c0 2-1 3-2 3s-1 0-1 0c-1 0-1-1-1-1z" fill="#bc6d5c"/><path d="m178 90c1 4 3 7 6 9 2 0 4 1 5 2 1 2 0 4 1 6s5 3 5 5c1 2 0 3 1 4 0 1 2 2 3 2 2 0 3-2 4-3s1-3 1-4c1-3 1-6 1-9-2-7-9-16-16-17z" fill="#2c3c42"/><path d="m191 89s-3-1-7 1c-3 1-5 3-5 3s0-1 1-1c1-1 2-2 4-3s3-1 5-1c1 0 2 1 2 1z" fill="#42616a"/><path d="m183 87s-2 1-3 3c-1 1-2 3-2 3v-1c0-1 1-2 1-3 1-1 2-1 2-1 1-1 2-1 2-1z" fill="#42616a"/><path d="m232 226s-2 0-3 0c-2 0-5 0-8 1s-5 2-7 3c-1 1-2 1-2 1l2-2c2-1 4-2 7-3 3 0 6-1 8 0h2z" fill="#2c3c42"/><path d="m325 230 12-1 9 27-18 6-6-1-2-29z" fill="#42616a"/><path d="m336 259s0-1-1-3c0-2-1-5-2-8s-1-6-2-8c0-2 0-3 0-3s0 1 1 3c0 2 1 5 2 8 0 3 1 6 2 8 0 2 1 3 0 3z" fill="#2c3c42"/><path d="m341 242s-2 0-4 1c-3 1-4 1-4 1-1 0 1-1 4-1 2-1 4-2 4-1z" fill="#2c3c42"/><path d="m280 418 7 23s-21 14-21 19l45-11-8-37z" fill="#f3786d"/><path d="m300 435c1 1 2 1 2 2s-1 2-2 2-2-1-2-2 2-2 2-1z" fill="#d7d9d9"/><path d="m266 460c0-1 1-2 1-3 0 1-1 2-1 3l11-3z" fill="#fefefe"/><path d="m266 460c0-1 1-2 1-3h1l21-6c-4 2-9 4-12 6z" fill="#f9bbb9"/><path d="m286 441h2c2 1 2 2 3 1 0 0-1-1-2-1-2-1-3 0-3 0z" fill="#2c3c42"/><path d="m282 444s1 0 2 1 1 2 1 2c1 0 0-2-1-3-1 0-2 0-2 0z" fill="#2c3c42"/><path d="m280 450c1 0 1-1 0-2s-2-1-2-1 1 1 1 2c1 0 1 1 1 1z" fill="#2c3c42"/><path d="m285 435c0 1 1 0 2 0h3c0-1-1-1-3-1-1 0-2 1-2 1z" fill="#2c3c42"/><path d="m296 424 1 24s-24 9-24 13h46v-37z" fill="#f3786d"/><path d="m311 446c1 0 2 1 2 2-1 1-2 1-3 1 0 0-1-1-1-2s2-2 2-1z" fill="#d7d9d9"/><path d="m273 461c0-1 1-2 1-2-1 1-1 2-1 2h46z" fill="#fefefe"/><path d="m273 461s0-1 1-2h1l44-2v4z" fill="#f9bbb9"/><path d="m296 447c0 1 1 1 2 2 2 0 2 1 2 1 1 0 0-1-1-2s-3-1-3-1z" fill="#2c3c42"/><path d="m291 450s1 0 2 1 1 2 1 2 1-1 0-2c-1-2-3-2-3-1z" fill="#2c3c42"/><path d="m289 455s0-1 0-2c-1-1-2-2-2-2 0 1 0 1 1 2 0 1 0 2 1 2z" fill="#2c3c42"/><path d="m297 442h2 2c1 0 0-1-2-1-1 0-3 1-2 1z" fill="#2c3c42"/><path d="m297 441v2 5c-2 1-5 2-8 3-4 2-8 4-11 5-1 1-2 1-3 2h-1 1c1-1 2-1 3-2 3-2 6-3 10-5 4-1 6-3 9-3 0-2 0-4 0-5s0-2 0-2z" fill="#2c3c42"/><path d="m325 245v19l-5 73s3 36 5 56c1 18-1 48-1 48h-30l-10-102-6-63-12-29z" fill="#2c3c42"/><path d="m249 246 4 104 29 77 2 5 17-4-12-182z" fill="#2c3c42"/><path d="m278 277v1 5c0 4 0 10 1 18 0 15 2 35 5 58 2 23 5 43 7 58 1 7 2 13 2 17 0 3 1 4 1 5v1 1s0 0 0-1c0 0 0 0 0-1s0-3-1-5c0-4-1-10-2-17-2-15-5-35-7-58s-4-43-5-58c0-8-1-14-1-18 0-2 0-4 0-5z" fill="#42616a"/><path d="m279 270v1c-1 0-1-1-1-1 0-1 0-1 0-2s-1-4-1-7-1-6-1-7c0-2 0-4 0-4s0 2 1 3c0 2 0 5 1 8v7c1 1 0 2 1 3z" fill="#42616a"/><path d="m283 252h1c0 1 1 1 0 2 0 1-1 2-1 2-1 0-2-1-2-2-1 0 0-1 0-2h1s0 0-1 1v1c0 1 1 1 2 1 0 0 1 0 1-1v-1c-1-1-1-1-1-1z" fill="#42616a"/><path d="m256 250v2c0 1 0 3-1 5-1 1-2 2-4 3-1 0-2 0-2 0h2c1-1 3-2 4-4 1-1 1-3 1-4s0-2 0-2z" fill="#42616a"/><path d="m264 254s0-1 0-3c0-1 0-2 0-2v2c0 2 1 3 0 3z" fill="#42616a"/><path d="m268 254s-1-1-1-3c0-1 0-2 0-2s0 1 1 2z" fill="#42616a"/><path d="m300 254s0-1 0-2 0-2 0-2v2c1 1 1 2 0 2z" fill="#42616a"/><path d="m304 255s-1-2-1-3c0-2 0-3 0-3v3c1 1 1 3 1 3z" fill="#42616a"/><path d="m326 266s0 0-1 0-1 0-3 0-5-1-7-3c-3-3-4-6-4-8-1-1-1-2-1-2 0-1 0-1 0-1s0 1 1 3 2 5 4 7c2 3 5 4 7 4z" fill="#42616a"/><path d="m250 155-7-18s-8 5-8 10c-1 6-11 54-11 54l13 14c2 2 4 2 6 1 0 0 1-1 1-2l8-26z" fill="#f3786d"/><path d="m319 175 1-49-25-7h-11l-16 3-25 15 6 20-3 92h80l2-6z" fill="#f3786d"/><path d="m320 126s11 6 13 13c3 6 13 32 13 32s6 8 6 15c0 8-7 14-15 12l-6-2-12-28z" fill="#f3786d"/><path d="m316 153s1 4 2 8c1 2 1 4 1 6 1 2 1 3 1 3s-1-4-2-9c-1-2-1-4-1-5-1-2-1-3-1-3z" fill="#2c3c42"/><path d="m319 128c1 0-1 3-2 7s0 8-1 8c0 0 0-1 0-3 0-1 0-3 0-5 1-2 2-4 2-5 1-2 1-2 1-2z" fill="#2c3c42"/><path d="m347 176s-1-1-2-2-2-1-3-2c-1 0-2-1-4-1-1-1-2-1-4-1-1 0-2 0-3 0-2 0-3 1-3 1s0 0 1-1h2c1 0 2-1 3 0h4c2 0 3 1 4 2 1 0 2 1 3 2 1 0 1 1 2 1z" fill="#2c3c42"/><path d="m340 170s-3-2-6-1c-4 0-6 2-6 2-1 0 0-1 1-1 1-1 3-2 5-2s3 0 4 1c2 0 2 0 2 1z" fill="#2c3c42"/><path d="m296 129s-1 1-2 3c-1 1-3 3-5 6-1 1-1 1-2 2v1-1c-1-2-2-4-4-4-1-1-1 0-2 0s0 0 0-1h2c2 1 4 2 4 5 0-1 1-2 2-3 2-2 3-4 5-6 1-1 2-2 2-2z" fill="#2c3c42"/><path d="m283 228s0 0 0-1c0 0 0-1 0-2 0-3 0-6 0-10-1-8-1-20-1-32-1-13-1-24-1-33 0-4 0-7 0-9s0-2 0-3 0-1 0-1v1 3 9c1 9 1 20 1 33 1 12 1 24 1 32v10 2z" fill="#2c3c42"/><path d="m288 250c-1 0-1-5-1-12-1-6-1-11-1-11s1 5 1 11c1 6 1 12 1 12z" fill="#2c3c42"/><path d="m244 137s1 3 2 6v6c-1 0-1-3-1-6s-1-6-1-6z" fill="#2c3c42"/><path d="m281 136s0 0-1 0c0-1-1-1-1 0-1 0-2 0-2 1-1 1-1 2-1 3v1c-1-1-1-1-1-1-3-2-4-4-6-5-1-2-1-3-1-3s1 1 2 2c1 2 3 4 5 5 0 1 1 1 1 1 0-1 0-2 0-3 1 0 1-1 1-1 1-1 1-1 1-1h2c1 1 1 1 1 1z" fill="#2c3c42"/><path d="m277 145c-7-4-13-12-13-20 1 3 2 5 4 7 0 0 0 1 1 3 2 1 3 3 6 5 0 0 0 0 1 1v-1c0-1 0-2 1-3 0-1 1-1 2-1 0-1 0-1 0-1 1 0 1 0 1 1 1 0 0 1 0 1-2 2-2 5-2 8-1 0-1 0-1 0z" fill="#cc5f52"/><path d="m276 141c-1-1-1-1-1-1-3-2-4-4-6-5-1-2-1-3-1-3 0 1 1 2 1 2 2 3 4 5 7 6 0-2 1-4 2-4 0-1 1-1 2-1v1c0-1 0-1-1-1v1c-1 0-2 0-2 1-1 1-1 2-1 3z" fill="#273136"/><path d="m285 144c0-1 0-2 0-3 0-2 0-3-1-4 0-1-3-1-3-1h1 1c2 0 3 2 4 4v1-1l2-2c2-3 4-5 5-6 0-1 1-1 1-2l-5 8c-2 2-3 4-5 6z" fill="#cc5f52"/><path d="m287 141v-1c-1-2-2-4-4-4h-1-1s1-1 1-1c4 0 5 5 5 5l9-11-1 1c0 1-1 1-1 2-1 1-3 3-5 6-1 1-1 1-2 2z" fill="#273136"/><path d="m261 189s0 0-1 0c0 0-1 0-1-1 0 0 0-1-1-1v1c1 0 1 1 1 1-1 0-1 0-1 0-2-1-1-4-1-5 0 1-1 2-1 3-1 0-2 1-2 1s-1 0-1-1c-1 0-1 0-1-1h1c1 0 2-1 1-1h-1c-1 0-1 0-1 0-1 0-1 0-1 0-1 0-1 0-1-1v-1s0 1 1 1h1 1c1-1 1 0 1-1 0 0-1 0-2 0-1-1-2-1-2-2 0 0 0 0 0-1 1 0 1-1 1-1h1c-1 0-1 1 0 1 0 1 1 2 2 2h1v-1c-1-1-2-1-3-2s-1-2-1-2c0-1 1-1 1-1s1 1 1 1c0 1 0 2 1 2 0 1 1 1 1 1 0-1-1-1-2-2 0-1-1-3 0-4 0 0 1-1 1-1s0 0 1 2v1c0 2 1 2 1 2h1c0-1-3-3-2-6 0 0 1-1 1-1v1s0 0 1 1v3s1 1 1 1 0 0 0-1-2-3 0-5v-1s1 0 1 1c0 0-1 1 0 2v1 1s0 0 1-1c0 0-1-1-1-1 0-1 0-2 0-2 0-1 1-1 1-1 0 1-1 2 0 3 1 0 1-1 1-1 0-1-1-1 0-2v-1c1 0 1 0 1 1 1 0 1 0 1 2-1 1-1 1-1 2l2-2s0 0 0-1 1 1 0 2c0 0 0 1-1 2 0 0 0 0-1 1-1 0-1 0-1 0h1c1 0 2-1 2-1 1-1 1-1 1-1 0 1 0 1 1 2-1 0-1 0-1 0-2 2-3 2-4 2v1h1c2 0 3-1 4-2v2c-1 1-2 1-3 1-1 1-1 0-1 1-1 0-1 0 0 0 1 0 2-1 3-1h1v2s0 0-1 0c-1 1-2 1-2 1-1 0-1 0-1 0h-1 2v1h1s1-1 2-1v2c-1 0-1 0-2 0h-1c-1 0-1 0-2 0h-1c1 0 1 1 2 1h1 1 1c0 1-1 1-1 1s-1 1-1 1c-1 0-1 0-1-1h-1c-1 0-1-1-2-1v1c1 1 3 2 3 2s0 0-1 0zm-2-5c-1 0-1 0-1 0s1 1 1 1c1-1 1-1 1-1zm0-2c-1 0-1 1-1 1h2c-1-1-1-1-1-1zm-3 0v1c1 0 1-1 0-1zm4-1c-1 0-1 0-1 0 0 1 0 1 1 1 1 0 1-1 0-1zm-4-1v1s1 1 1 1v-1s0 0-1-1zm1-1v1h1s0-1-1-1zm3 0c-1 1 0 1 0 1h1c0-1 0-1-1-1zm-2-2v1c1 0 1 0 0 0z" fill="#f59691"/><path d="m254 194s0-1 1-3c0-2 1-4 2-7s2-5 3-7c0-2 1-3 1-3s0 1-1 3-2 4-3 7-2 5-2 7c-1 2-1 3-1 3z" fill="#2c3c42"/><path d="m238 207c-1 0-2 0-2-1 0-2 1-2 1-3-1 0-1 0-1 0 0 1-1 2-1 3s-1 0-1-1 1-1 1-2 0-1 1-2c-1 0-2 1-2 2-1 1-1 1-1 2s-1-1-1-1 0-1 1-2c0-2 2-2 2-3s0-1 0-1h-1c-2 1-2 3-3 5s-1-1-1-3c1-1 2-1 3-3h1v-1c-1 0-2 2-3 3-1 0-1 1-1 1s-1-1-1-1c0-1 0-1 1-2 2-2 3-2 4-2-1-1-1-1-1-1s-1 1-1 1h-1c-1 0-2 2-2 2-1 0-1 0-1 0v-1c0-1 1-2 2-2 0-1 1-1 1-1h2s1 0 0-1c0 0 0 0-1 0-1 0-2 1-3 1 0-1 0-1 0-1 0-1 1-1 1-1h1 1 2v-1c-1-1-3-1-3-1-1 0 0-1 1-1 1 0 1 0 2 1h1v1s0-1-1-2h-1c1 0 1-1 1-1 3 0 2 4 3 5v-1s0-1 0-2c1-1 1-2 2-2 2 0 2 0 2 1s0 0-1 0c-1 1-1 2-1 2 1 0 2-1 3-2 1 0 1 1 2 1v1s0 0-1 0c-1 0-1 0-2 0-1 1-1 1-1 1v1s1-1 1-1h1c1 0 2 0 2 1 1 0 1 0 1 1 0 0 0 1-1 2s0 0 0-1c0 0 0-1-1-1 0 0-1-1-2-1 0 0-1 1-1 1v1c1 0 2-1 4 1 1 0 1 1 1 1v1c-1 0-1 0-2-1 0 0-1-1-1-1-1 0-1 0-1 0h-1c1 1 2 1 3 1 1 1 2 2 2 3s-1 1-1 2 0 0-1-2c-1 0-1 0-1-1-1-1-1-1-2-1 0 1 3 2 3 5v1h-1c0-1 0-1 0-1-2-1-1-1-2-3h-1c0 2 3 3 2 5v1s0-1-1-2c-1 0-1-1-1-1v-1s0 0-1 0v1s1 1 1 1c1 1 1 1 1 2v1c-1-1-1-2-1-3h-1v1c1 1 1 1 1 3 0 0 0 0-1 0zm0-9h1zm-2-1h-1v1c1 0 1 0 1-1zm2-1h1zm-2-1c-1 0-1 0-1 0-1 1 0 1 0 1 1 0 2 0 1-1zm2-1s-1 0 0 1h1s0 0 0-1c0 0 0 0-1 0zm-2-1c-1 0-1 0-1 1h1c0-1 0-1 0-1zm2 0h1s0 0-1 0zm-3-1c-1 0-1 1 0 1 1 0 1-1 1-1s0 0-1 0z" fill="#f59691"/><path d="m236 181v3c1 2 1 5 1 8v7 3s0-1 0-3 0-4 0-7-1-6-1-8 0-3 0-3z" fill="#2c3c42"/><path d="m259 149s0 0-1 0c0 0-1 0-1-1s0-1-1-1v1c1 0 1 0 1 1-1 0-1 0-1 0-2-1-1-4-1-5-1 1-1 2-1 3-1 0-2 0-2 0h-1c-1 0-1-1-1-1h1c1 0 2-1 1-1h-1c-1 0-1 0-1 0-1 0-1 0-1 0-1 0-1-1-1-1s0 0 0-1 0 0 1 1h1 1c1-1 1-1 1-1s-1 0-2-1c-1 0-2 0-2-1v-1c1-1 1-1 1-1 0-1 0-1 0-1 1 0 1 1 1 1-1 0-1 1 0 1 0 1 1 2 2 2h1c0-1 0-1 0-1-1-1-2-1-3-3-1 0-1-1-1-2h1s1 0 1 1 0 2 1 2c0 1 1 1 1 1s0 0 0-1-1-1-2-2c0-1-1-2 0-3 0 0 1-1 1-1s0 0 1 2v1c0 1 1 2 1 2h1c0-1-3-3-2-6 0 0 1-1 1-1 0 1 0 1 1 2v3s0 1 1 1v-1c0-1-2-3 0-5v-1h1c0 1-1 1 0 3v1h1s-1-1-1-2c0 0 0-1 0-2h1s-1 2 0 3c1-1 1-1 1-1 0-1-1-1 0-3h1c1 1 1 1 1 2-1 2-1 2-1 2-1 1 0 1 0 1 1-1 1-2 2-2 0-1 0-1 0-1s1 1 0 2c0 0 0 1-1 1 0 1 0 1-1 1-1 1-1 1-1 1h1c1 0 2-1 2-2 1 0 1 0 2-1v1c0 1 0 1-1 2-2 2-3 1-4 2 0 1 1 1 1 1 2 0 3-2 5-3v2c-1 1-2 2-4 2-1 0-1 0-1 0-1 1-1 1 0 1 1 0 2-1 3-1 1-1 1-1 2-1v1c0 1-1 2-2 2s-2 0-2 0c-1 0-1 0-1 0h-1v1h2 1 1c1 0 1-1 2-1v1c0 1-2 2-3 2h-1c-1-1-1-1-2-1s-1 0-1 1c1 0 1 0 2 1h1 1 1s-1 1-1 1h-1c-1 0-1 0-1 0h-1c-1-1-1-1-2-1v1c1 1 3 2 3 2s0 0-1 0zm-2-5c-1 0-1 0-1 0h1 1zm0-2c-1 0-1 0-1 1h1 1v-1c-1 0-1 0-1 0zm-3 0c1 0 1 0 0 0zm4-1c-1 0-1 0-1 0s0 1 1 1v-1c1 0 1 0 0 0zm-4-1v1h1v-1s0 0-1 0zm1-1v1h1s0-1-1-1zm3 0c-1 0 0 1 0 1 1 0 1 0 1-1 0 0 0 0-1 0zm-2-2v1c1 0 1 0 0-1z" fill="#f59691"/><path d="m252 154s0-1 1-3c0-2 1-4 2-7s2-5 3-7c0-2 1-3 1-3s0 1-1 3-2 4-3 7-2 5-2 7c-1 2-1 3-1 3z" fill="#2c3c42"/><path d="m262 228c-1-1-1-1-1-2 1-1 2-1 2-2s0 0-1 0c0 0-1 1-2 1v1s0-1 0-2c0 0 1 0 1-1 1 0 1 0 2-1 0 0 1 0 0 0 0-1 0-1 0-1-1 0-2 1-3 2 0 0 0 0-1 1-1 0-1 0-1 0s1-1 1-2c0 0 0 0 1-1 2-1 3-1 4-1v-1s0 0-1 0c-2 0-3 1-5 2s0-2 1-3c1 0 2 0 4-1h1s0 0-1 0-2 0-2 0c-1 1-2 1-2 1-1 0 0-1 0-1 0-1 1-2 1-2h2 2 1c-1 0-1 0-2-1-1 0-1 0-1 0h-1c-1 0-1 1-2 1 0 0 0 0 0-1 1-1 2-2 3-2 1 0 1 1 2 1 0 0 0 0 1 1h1s0 0 0-1c0 0 0 0-1-1-1 0-2 0-3 0l-1-1c1 0 1-1 2-1h1s1 0 1 1h1c0 1 1 2 1 2s0 0 0-1c0-2-2-3-2-3h1 1s1 1 1 1c0 1 0 1 1 2s0-1 0-2c-1 0-1 0-1-1 1 0 1 0 1 1 2 1 0 4 0 4 1 0 1-1 2-2h1 1 1c1 1 1 1 1 2-1 0-1-1-2-1-1 0-1 1-1 1h1 1 1c1 1 1 1 1 2s0 0-1 0h-1s0 0-1 0c0 0 0 0-1 0s1 0 2 1c1 0 1 1 1 2v1s-1 1-1 1c0-1 0-1 0-2s-2-2-2-2c-1 0-1 0-1 0v1c1 1 2 1 2 3 1 1 1 1 0 2v1c-1-1-1-1-1-2s0-2-1-2c0-1 0-1-1-1 0 1 1 2 2 3v3c-1 0-1 1-1 1-1 0-1 0-1 0s0 0 0-2v-1c0-2-1-3-1-3v1c-1 1 2 3 0 5 0 1-1 1-1 1v-1c-1-2 0-2 0-3s-1-1-1-1c0-1 0-1 0-1v1c0 1 1 4 0 5s-1 1-1 1c-1 0-1 0-1 0s1-1 1-2-1-1-1-2c0 0 1 0 0 0v2 2h-1s1-2 0-3v1c0 1 0 1-1 2zm5-8s-1 1 0 1zm1-2c-1 0 0 1 0 2 1 0 1-1 1-1-1 0-1 0-1 0 0-1 0-1 0-1zm-3 0v1h1s0 0 0-1zm4-1c-1 0-1 0-1 0 0 1 1 1 1 1h1c0-1-1-1-1-1zm-3-1s0 0-1 0v1s1 1 1 1c1 0 1-1 1-1s-1-1-1-1zm3 0s0 1 1 1c0-1 0-1-1-1zm-3-1v1h1 1c-1-1-1-1-2-1zm1-1v1h1s0 0 0-1z" fill="#f59691"/><path d="m274 205s-1 1-1 3c-1 2-2 4-4 7-1 2-3 5-4 6-1 2-1 3-1 3s0-1 1-3 2-4 4-7c1-2 3-4 3-6 1-2 2-3 2-3z" fill="#2c3c42"/><path d="m305 170c-1 0-1-1-1-1-1-1-1-2-1-2 0-1 0-1 1-2 0 0 0-1-1-1-1 1-1 2-1 3v2 1s-1-1-1-1c0-1 0-2 0-2 0-3 1-3 1-5s-1 0-1 1c-1 1-2 3-1 5-1 0-2-1-2-2s1-2 2-4v-1c-1 0-1 2-2 3v2s0 0-1 0c0 0 0-1-1-1 0-1 0-1 0-2 2-3 3-3 3-4-1 0-1 1-2 1-1 1-1 3-2 3-1-1 0-3 0-3 1-1 1-1 1-1 1-1 1 0 2-1v-1s0 0-1 0-1 0-1 1c0 0-1 1-1 1-1 0-1 0-1 1s0 0 0-1v-1-1c1 0 1-1 2-1h1 1c0-1 0-1 0-1-1 0-1 0-2 0s-2 0-2 0 1-1 1-1h1 1 1c1 0 1-1 0-1 0 0 0 0-1 0 0 0 0 0-1 0 1 0 1-1 1-1h1c2 0 2 3 3 3 0-1-1-1-1-3 0-1 1-1 2-2h1 1v1c-1 0-1 0-1 0-1 1-1 2-1 2h1c1 0 1-2 2-2 0-1 0-1 1-1v1h1s0 0-1 0c-1 1-1 1-1 2-1 1-1 1-1 1s1-1 2-1h1 1s1 0 1 1v2c0-1-1-1-1-2-1 0-1 0-1 0-1 0-2 1-2 2-1 0 0 0 0 0h2 2c1 0 1 0 1 1 1 0 1 1 1 1s0 0-1 0 0 0-1-1c-1 0-2 0-2 0-1 0-2 0-1 0 0 1 0 1 1 1h1c1 0 3 1 3 2v1 1c0-1 0-1-2-2 0 0 0 0-1 0 0-1-1-1-2-1 0 0-1 0 0 1 0 1 4 0 4 3 1 0 1 1 0 1s0 0-1-1c-1 0-1-1-2-2-1 0-1 0-1 0s0 0-1 0c0 0 0 1 1 1 1 1 3 1 4 3v1h-1s0-1-1-1-1 0-2-1c0 1 1 1 1 1 1 1 2 1 2 2v1c-1-1-1-2-2-2-1 0 0 0 0 1 0 0 1 0 1 2-1 0-1 0-2 0 0 0 0 0-1 0 0-2 0-2 0-3-1 1-1 2 0 3zm-3-10c-1 1-1 2 0 2 0 0 0-1 1-1 0-1-1-1-1-1zm3 0c-1 0-1 0-1 1h1zm-3-1c-1 0-1 0-2 1h1s1-1 1-1zm2 0c-1 0 0 0 0 0h1s0 0-1 0zm-3-2s-1 1-1 1v1-1h1zm3 0c-1 0-2 0-1 1h1zm-4-1s-1 1-1 1h1s1-1 0-1zm3 0c-1 0 0 0 0 0 1 0 1 0 0 0z" fill="#f59691"/><path d="m296 146s1 1 2 3c1 1 2 4 3 6 2 3 2 6 3 7 1 2 1 3 1 3s0-1-1-2c-1-2-2-5-3-7-1-3-2-6-3-7-1-2-2-3-2-3z" fill="#2c3c42"/><path d="m288 199c-1 0-1-1-2-2v-1c0-1 0-1 0-2 1-1 0-1 0-1-1 0-1 2-1 3v2s-1 0-1-1v-1c0-3 1-3 1-5-1 0-1 0-1 1-1 0-1 1-1 2 0-1-1-2-1-3 1-1 1-1 1-1s0 0-1 0c0-1 0-3 0-4h1v-1s0 0-1 0c0-1 0-1 0-2s0-1 0-1c1 1 1 2 2 2 0-1-1-2-1-3 0 0 0-1 1-1 0 0 0 1 1 1v1c1 1 2 3 3 4 1 1 1 1 1 2h-1c1 1 1 1 2 1 1 1 1 2 1 3s-1-1-1-2c-1 0-1 0-1 0h-1v1c1 0 3 1 4 2 0 0 0 1 1 2 0 0 0 0-1 0s0-1-1-1-1-1-2-1 1 1 1 1l2 2v1h-1c0-1 0-2-1-2h-1 1c0 1 1 1 1 3-1 0-1 0-2 0 0 0 0 0-1-1 0-1 0-2 0-2s0 0-1 0v3h1zm-3-10c-1 1-1 1 0 1s0 0 0-1zm2 0v1h1s0 0 0-1c0 0 0 0-1 0zm-3-1s0 0-1 0c0 1 0 1 1 1s1-1 1-1zm3-1s0 0-1 1h1c1 0 1-1 0-1zm-3-1s-1 0-1 1h1c0-1 0-1 0-1zm3 0c-1 0-2 0-1 1h1c0-1 0-1 0-1zm-1-1s0 0-1 0zm-3 12v-1zm9-14s-1-1-1-1 0 0 1 1zm-2-3s0 0-1-1c1 1 1 1 1 1z" fill="#f59691"/><path d="m283 197h-1v-6c0 1 1 2 1 3-1 1 0 1 0 2zm-1-7v-4zm0-5v-3 1z" fill="#657276"/><path d="m282 180s0 0 1 2c1 1 2 3 2 5 1 2 2 4 2 5 1 1 1 2 1 2s0-1-1-2-1-3-2-5c-2-4-3-7-3-7z" fill="#2c3c42"/><path d="m268 191c0-1 1-1 2-2h2c-1 2-3 2-4 2z" fill="#2c3c42"/><path d="m300 178s1-1 2-1h2c-1 1-3 2-4 1z" fill="#2c3c42"/><path d="m253 210c0-1 1-1 2-1h2c-1 1-3 1-4 1z" fill="#2c3c42"/><path d="m301 199s1-1 2-1h2c-1 1-3 2-4 2z" fill="#2c3c42"/><path d="m271 163s-1-1-1-1c-1-1-1-2-1-2 1 0 2 1 3 3z" fill="#2c3c42"/><path d="m275 244c-1 0-2 0-2-1 0 0-1-1-1-2 1 1 3 2 3 3z" fill="#2c3c42"/><path d="m251 164c0-1 0-2 1-2 0-1 1-1 1-2 0 2-1 3-2 4z" fill="#2c3c42"/><path d="m278 227c0-1 0-1 1-2 0-1 1-1 1-1 1 1 0 3-2 3z" fill="#2c3c42"/><path d="m313 211v1c-1 0-1 0-2 1s-4 2-6 3c-5 4-13 8-21 12-8 5-16 8-21 11-3 2-5 3-7 3-1 1-1 1-2 1 1 0 1 0 2-1 2-1 4-2 7-3 5-3 12-7 21-11 8-5 15-9 21-12 2-1 4-3 6-3 1-1 1-1 2-1 0-1 0-1 0-1z" fill="#2c3c42"/><path d="m307 215v-1h1s-1 1-1 1z" fill="#f59691"/><path d="m307 215s1-1 1-1-1 1-1 1z" fill="#657276"/><path d="m295 222s0 0-1-1c-1-1-1-1-1-2h1s0 1 1 1c1 0 3 0 3-1s0-1-1-1c-1 0-1 1-2 1s-1 0-1 0c-1 0-2-1-2-1 0-1 0-1-1-1h1 1c1 0 2 1 3 1s1-1 1-1c-1 0-1 0-1 0h-1s0 0-1 0c-1 0-3-1-3-2s0-1 0-2 0 1 2 1c0 0 0 1 1 1 0 0 1 1 2 1 0 0 1-1 1-1-1-1-5 0-6-3v-1h2l2 2h1c1 0 1 0 0-1-1 0-3 0-4-2 0-1 0-2 0-2s1 1 2 2h1s0 1 1 1c0-1 0-1 0-1-1 0-2-1-2-1-1 0-1-1-1-1-1-1-1-1 0-1s1 2 2 2c0-1 0-1 0-1-1-1-1-1-2-2 0-1 0-1 0-1h2s1 0 1 1v2h1c0-1 0-2 0-3 0 0 0 0-1 0h1s0 0 1 1v1 2 1c1 0 1-2 1-3s0-1 0-2h1c0 1 1 2 1 2 0 3-1 3-1 5s1 0 1-1c1-1 1-3 0-5h1s1 1 1 2c1 1 0 2-1 4v1c1 0 1-2 1-3 1-1 1-1 1-2s1 0 1 1c1 0 1 1 0 2-1 2-2 3-2 3v1c1-1 1-1 2-1v-1c1 0 1-3 2-3v1c1 1 0 2 0 3-1 0-1 0-1 1-1 0-1 0-2 1 0 1-1 1-1 1s0 0-1 0v1c-2 1-5 2-7 4zm4-4h1s0 0-1 0zm0-2s0 0-1 0v1c1 0 2 0 1-1zm3-1c-1 1-1 1-1 1v1s1-1 1-1c0-1 0-1 0-1zm-4 0s0 0-1 0c0 0 0 1 1 1s0 0 1-1c0 0 0 0-1 0zm3-1s-1 1-1 1h1s0 0 1-1c0 0 0 0-1 0zm-4-1v1h1s0-1-1-1zm3-1s0 1-1 1c0 1 1 1 1 1 1-1 1-2 0-2z" fill="#f59691"/><path d="m295 222c2-2 5-3 7-4-3 1-5 3-7 4zm8-5s1 0 1-1c0 1-1 1-1 1z" fill="#657276"/><path d="m301 218s-1-1-2-3c-1-1-2-3-1-3 0 0 1 1 2 3 0 1 1 3 1 3z" fill="#2c3c42"/><path d="m320 182s0-1-1-1v-1h1z" fill="#f59691"/><path d="m322 195-1-4c0 2 1 3 1 4z" fill="#fefefe"/><path d="m316 197c0-1 0-1 1-2 0 0 1-1 1-2v-1c-1 1-1 2-1 3-1 1-2 2-3 2-1 0-1-1-2-1s1 0 2-1c0-1 1-1 1-1 2-1 2-3 1-3-1 1-2 4-4 4-1 0-1 0-1 0h-1c1-1 1-1 1-1 1-1 1-1 3-2v-1c-2 0-2 3-5 3s-1-1-1-1 1 0 2-1c0 0 1-1 1-1h1s0-1-1-1v1s-1 0-1 1c-1 0-1 0-2 0-1 0-1 0-1 0 1 0 2 0 2-1 0-1 0-1 0-1v1c-1 0-1 0-2 0h-1c0-1 0-2 1-2h2 1s0 0 0-1c-1 0-2 0-3 0h-1s1-1 2-1h2s0 0 1 1h1c0-1-2-2-3-2 0 0 0 0-1-1h-1s1 0 2-1 1 1 1 1c3 0 3 2 4 2 1 0 0 0 0-1-1-2-2-2-4-2-1-1 0-2 1-2h1l3 3c1 0 1 1 1 1 0-1-1-2-2-3s-1-1-1-1c-1 0 0-1 0-1h1s1 0 1 1c3 2 2 3 3 3v-1c0-1 0-1 0-1-1-1-3-2-3-3h1c1 0 2 1 3 2v1c0 1 0 0 1 2s0 1 1 1h-1v1h1v4l1 4c0 1-1 1-1 1s0 0-1 0h-1s1-1 1-1c1-1 1-3 0-3h-1c0 1 1 2-1 4 0 0 0 1-1 1zm2-8v1 1h1c0-1 0-2-1-2zm-1 1s-1 0 0 1c0-1 0-1 0-1zm-2 0v1zm5 0v1c0-1 0-1 0-1zm-5-3v1h1c0-1 0-1-1-1zm2-1v1 1h1s0-1-1-1c0-1 0-1 0-1zm2 0s-1 1-1 1c1 0 1 0 1 1v-1z" fill="#f59691"/><path d="m321 189c0-1 0 0 0 0-1 0-2 0-4 0s-3 1-3 0h3z" fill="#2c3c42"/><path d="m281 147s0 0 0-1c-1 0-1 0-1 0 0-1 1-1 1-1v1z" fill="#f59691"/><path d="m281 147v-1z" fill="#657276"/><path d="m276 162c-1 0-1 0-1 0v-1s1 0 1-1c1 0 1-1 2-2v-1c-1 1-1 1-2 2 0 1-1 2-2 2 0-1-1-1-1-2h2c1-1 1-3 1-3-1 0-2 2-3 3-1-1-1-1-2-2 1 0 2 0 2-1 1 0 1 0 1-1-1 1-2 1-3 2 0 0 0-1-1-1 1-1 1-1 1-1h1-1s0 0-1 0c0 0 0-1-1-1 0-1 0-1 0-1h1s0 0 0-1c-1 0-1 0-2-1h-1 1 2c1 1 1 1 2 1 0-1-1-2-2-2s-1-1-2-1 1-1 1-1c1 0 2 1 2 1 2 1 2 2 4 3 0-1 0-1 0-1-1-2-3-3-5-3 0-1 1-2 2-2 0 0 1 1 1 1 1 0 2 1 3 3 0 0 0 0 1 1 0-2-1-2-2-3s-1-1-1-2c-1 0 0 0 1 0s1 0 2 1c1 2 1 3 2 3v-1c0-1 0-1 0-1-1-1-3-3-2-3h1c1 0 2 1 2 2v1 2h1v1 1c0-1 0-1 0-1h-1v1s1 1 1 1v8c-1 0-1 0-1 0s0 0-1 0h-1s1 0 2-1c0 0 1-2 0-3-1 0-1 0-1 0 0 1 0 2-1 4-1 0-1 1-2 1zm3-8c-1 0-1 0-1 0v1 1h1zm1 1s-1 0 0 1zm-3-1s-1 1 0 1v1c0-1 0-1 0-1zm-2 0v1c0-1 0-1 0-1zm4-3v1 1h1v-1h-1zm-2 0v1s0 1 1 1v-1c0-1 0-1-1-1zm-1 1c-1 0-1 0 0 1 0-1 0-1 0-1z" fill="#f59691"/><path d="m281 151c0-1 0-1 0-1z" fill="#657276"/><path d="m278 145c-1 0-1 0-1 0z" fill="#db897e"/><path d="m281 154c-1 0-2 0-3 0-2 0-4 0-4 0h4z" fill="#2c3c42"/><path d="m335 142s0 0-1-1c0-1 0-1 0-1 1 1 1 1 1 2z" fill="#e2e3e3"/><path d="m340 155c-1-3-3-5-4-8h1c1 3 2 6 3 8zm-3-9h-1s0-1-1-1h1s1 1 1 1z" fill="#e2e3e3"/><path d="m331 158c0-1 0-1 1-2 0-1 1-1 1-1 1-1 1-3 1-3h-1c-1 1 0 4-3 5h-1-1 1c0-1 0-1 0-1 1-2 1-2 2-3 1 0 1-1 1-1-1 0-1 0-1 0-1 1-1 4-4 4h-1c0-1 1-1 2-2 0 0 0-1 1-1v-1c-1 0-1 1-2 2 0 0 0 1-1 1 0 0 0 0-1 0 0-1 2-1 2-2h-1s-1 1-2 1c0-1-1-2 0-3h1 1 1c-1-1-1-1-2-1h-1c0 1 0 1-1 1s1-1 1-2h2c1 1 1 1 2 1h1c0-1-2-1-3-2-1 0-1 0-2 0-1 0 0-1 1-1h1c3 0 3 1 5 2s0 0 0-1c0 0 0 0 0-1-1-1-3-1-4-1s-1 0-2 0 0-1 1-1c0 0 1-1 1-1h1c1 0 2 1 3 2 1 0 1 1 1 1 0-2-1-2-2-2-1-1-2-1-2-1-1 0 0-1 1-1h1 1c2 1 2 3 3 3 0-1 0-1-1-2 0 0 0 0 0-1s-3-1-3-2h1 1s1 0 2 1c0 0 1 1 1 1v2c1 0 1 1 1 1v1c1 3 3 5 4 8-1 1-1 1-1 1h-1-1s1-1 1-1c1-1 0-3-1-4v1c0 1 1 2 0 4 0 0-1 1-1 1-1 0-1 0-1 0v-1c1-1 1-2 1-2 0-1 0-2 0-2h-1v3c0 1-1 2-2 3-1 0-1 0-2 0zm1-7v1c1-1 1-1 0-1zm2-1s-1 1 0 1c1 0 1 0 0-1zm2 0c-1 0-1 0-1 0v1h1c0-1 0-1 0-1zm1-1v1c0-1 0-1 0-1zm-5-1s-1 0 0 1h1c0-1-1-1-1-1zm1-1v1s1 1 1 1c1-1 0-2 0-2s0 0-1 0zm2 0v1h1s0-1-1-1z" fill="#f59691"/><path d="m338 148s-2 1-4 2c-2 0-3 1-3 1s1-1 3-2 4-1 4-1z" fill="#2c3c42"/><path d="m246 163v-1z" fill="#f59691"/><path d="m241 178h-1s0 0 0-1c0 0 1 0 1-1 1 0 2-1 2-1 0-1 0-2 0-2-1 1-1 2-2 3 0 0-1 1-2 1h-1-1v-1s0 0 1-1h2c1-1 2-3 1-3-1 1-2 3-4 3-1 0-1 0-1 0h-1c0-1 0-1 1-1 1-1 1-1 3-1 0-1 0-1 1-1 0-1-1-1-1-1-1 1-2 3-4 3h-1c0-1-1-1-1-1s1 0 2-1c1 0 1-1 1-1h1s0 0-1 0h-1c-1 1-1 1-2 1-1 0-1-1-1-1 1 0 2 1 3 0v-1s0 0-1 0c0 1-1 1-1 1-1 0-1 0-2-1 1-1 1-2 2-2 1 0 2 1 2 1s0 0 0-1c0 0-1-1-2-1-1 0-1 0-1 0s1-1 1-1c1 0 1 1 1 1h2c0 1 0 1 1 1h1c0-1-2-2-3-2 0 0 0-1-1-1-1 0 0-1 1-1s1 1 1 1c3 1 3 2 4 3v-1c-1-2-2-3-4-3-1-1 1-1 2-1h1c1 0 1 1 2 3 1 0 1 1 1 1 0-1-1-2-2-3 0-1 0-1-1-1 0-1 1-1 1-1 1 0 2 0 2 1 2 2 1 3 2 4 0-1 0-1 0-2v-1c0-1-2-2-2-3h1c1 0 2 1 2 2 1 0 1 1 1 1v2 1 1 1 1s-2 0-3 0-1 0-1 0c-2 0-3 0-3 0h4 3v4 3 1c-1 0-1 0-1 0-1 0-1 0-2-1 1 0 1 0 2-1 0 0 1-2 0-3s-1 0-1 1c0 0 0 1-1 3-1 0-1 1-2 1zm3-7c-1 0-1 0-1 0v1h1zm1 0v1zm-3 0v1c1-1 1-1 1-1zm-2-1v1h1s0-1-1-1zm5-2c-1 0-1 0-1 0v1h1s0 0 0-1zm-2 0h-1s1 1 1 1c1 0 1-1 0-1zm-2 0v1h1c0-1-1-1-1-1z" fill="#f59691"/><path d="m246 170s-1 0-3 0-4 0-4 0h4z" fill="#2c3c42"/><path d="m302 122s0 0-1 0v-1c1 0 1 0 2 1z" fill="#f59691"/><path d="m306 138c-1 0-1 0-1 0-1-1-1-1-1-2s1-2 1-2c-1 0-2 1-2 1v1s-1-1-1-1c1-1 1-2 2-2 0-1 0-1 1-1 0 0 1-1 0-1-1 0-2 1-3 2 0 0 0 0-1 1v-1c0-1 0-1 1-1 1-2 3-2 4-3-1-1-1-1-1-1-3 1-4 2-5 4s-1-2 0-3 2-1 4-2h1s0 0 0-1c0 0 0 0-1 0s-1 1-2 1c-1 1-2 1-2 1s0 0 0-1 0-1 1-1c3-2 4-1 4-1 0-1-1-1-1-1-1 0-1 0-1 0-1 0-1 0-2 0-1 1-1 1-1 1v-1c0-1 1-2 2-2 1 0 1 0 2 1h1 1v-1c0 1 1 1 1 1s1 1 1 1v-1c3 1 6 2 8 2v1 1s0 1-1 1v-1c0-1-2-2-2-2-1 0-1 0-1 0v1c1 1 2 1 3 2 0 1 1 2 0 2v1c-1 0-1-1-1-1 0-1-1-2-1-2-1-1-1-1-1-1-1 0-1 0-1 0 1 1 2 2 2 2 1 1 1 3 1 4 0 0-1 1-1 1s0 0-1-2v-1c0-2-1-2-2-2 0 1 3 3 2 6 0 0-1 1-1 1 0-1 0-1-1-2s0-1 0-3c0 0-1-1-1-1s-1 1-1 1c1 1 3 3 1 5v1c-1 0-1 0-1 0 0-1 1-1 0-3 0 0 0 0 0-1-1 0-1 0-1 0s0 1 1 2v2h-1v-2c-1 0-1 0-1 0zm2-9v1h1c0-1 0-1-1-1zm-2-2v1h1c0-1 0-1-1-1zm3 0v1h1c0-1-1-1-1-1zm1-1c-1 0-1 0-1 0s0 1 1 1 1 0 1-1c-1 0-1 0-1 0zm-3 0h-1c0 1 1 1 1 1s1-1 1-1zm3-1h1zm-3-1c-1 0 0 1 0 1h1s0 0 0-1c0 0 0 0-1 0z" fill="#f59691"/><path d="m309 123c1 0 0 2 0 4-1 2-2 3-2 3s0-2 1-3c1-2 1-4 1-4z" fill="#2c3c42"/><path d="m309 249s0 0 0-1h1v1z" fill="#f59691"/><path d="m305 249h-1v-1c-1 0-1 0-1 1-3 0-6 0-8 0 0 0 0-1-1-1 0 0 0 0 0-1 0 0 0-1 1-1v1c1 1 2 1 3 1 0 0 0 0 1-1 0 0 0 0-1 0-1-1-1 0-3-2-1 0-1-1-1-1 0-1 0-1 0-1 1 0 1 0 2 1 0 0 1 1 1 1 1 1 1 1 1 1s1 0 1-1c-1-1-2 0-3-1s-1-2-1-3 0-1 0-2c1 0 0 1 2 2v1c1 1 2 2 2 2s1 0 1-1c-1-1-4-2-4-5 1 0 1-1 1-1 0 1 0 1 1 1 1 1 1 2 1 3 1 1 1 1 1 1 1 0 1 0 1-1-1-1-3-2-3-4 0-1 1-2 1-2v1s0 1 1 2c0 0 0 0 1 1s0-1-1-2c0 0 0-1 0-2v-1 1s0 2 1 2c1 0 1 0 0-1 0 0 0-1 0-2h1c1 0 2 0 2 1-1 2-1 2-1 3 1-1 1-2 2-3v1 2c-1 1-1 1-1 1-1 1-1 1 0 1 1 0 1-1 2-2 0-1 0-1 1-2v1c1 1 0 1 0 2-1 2-2 2-3 3v1h1c2-1 3-3 3-5 1 0 2 2 1 3s-1 2-3 3c-1 0-1 0-1 0v1c1 0 2-2 3-2 1-1 1-1 1-2h1v1c0 1 0 2-1 2-2 2-3 2-4 2v1h1 1s1-1 1-1c1 0 2-2 3-2v1c0 1-1 2-2 3-1 0-1 0-2 0 0 0 0 0-1 0s-1 0-1 1zm-5-2v1h1s0-1-1-1zm4 0c-1 0-1 0-1 0zm-4-1c0 1 0 1 1 1v-1s0 0-1 0zm4-1c-1 0-2 0-1 1h1c1-1 0-1 0-1zm-4-1v1h1c1 0 0-1-1-1zm4-1c-1 0-1 0-1 0v1h1c0-1 0-1 0-1zm-3-1s-1 0-1 1h1c1 0 1 0 0-1z" fill="#f59691"/><path d="m302 249h-1c0-1 0-2 1-4 0-2 0-3 0-3v3z" fill="#2c3c42"/><path d="m305 220c-1 0-1 0-1 0s0 0-1 0c0-1 1-1 1-1 1 0 1-1 1-2 1-1 1-1 1-1s-1 1-2 1c0 1-1 1-1 1 0-1 1-1 2-2 2-1 3-2 5-2 0-1 0-1 0-1 1 0 1 1 2 1 0-1 0-1 0-2h1c1 0 1-1 1-1 1-1 1-1 2-1v1c0 1 0 1-1 1 0 1 0 1-1 1l-2 2h1c1 0 2-1 3-1s-1 1-1 1c-1 1-1 1-2 1-1 0-1 0-1 0-1 0-1 0 0 0h1 1c0 1-1 1-1 1h-1c-2 0-3-2-3-2 0 1 1 1 1 2s-1 2-1 3h-1s0 0-1 0c0 0 0 0-1 0v-1h2c0-1 0-2 0-2-1 0-1 2-2 3-1 0-1 0-1 0z" fill="#f59691"/><path d="m303 218c1-1 4-3 7-4-2 0-3 1-5 2-1 1-2 1-2 2z" fill="#657276"/><path d="m314 224c-1 0-1 0-1-1s-1-3-2-4c-1-3-3-5-2-5 0 0 1 2 3 5 1 1 1 3 1 4 1 1 1 1 1 1z" fill="#2c3c42"/><path d="m274 238c-1 0-1 0-1 0s1 0 1-1c1-1 1-2 0-2-1 1-1 2-2 3h-1s0 0-1 0c0-1 0-1 1-1s1-1 1-1c1-2 1-2 1-2-1 0-1 1-2 1-1 1-1 1-1 1 2-2 5-3 9-5h1c1-1 1-1 1-1 1-1 1-1 2-1v1s-1 1-1 1 0 1-1 1l-2 1h1 2c1 0 0 1-1 1 0 0 0 1-1 1 0 0 0 0-1-1-1 0-1 0-1 0s0 1 1 1h1 1c-1 0-1 1-1 1-1 0-1 0-1 0-2 0-3-3-3-3 0 1 1 2 0 3 0 1 0 2-1 2-1 0-1 0-1 0z" fill="#f59691"/><path d="m270 236c-1 0-1 0-1 0 2-1 5-3 8-4 1-1 1-1 2-1-4 2-7 3-9 5z" fill="#657276"/><path d="m280 243s0-1-1-2c0-1-1-2-1-3-2-3-3-5-3-6 1 0 2 3 3 5s2 3 2 4z" fill="#2c3c42"/><path d="m246 158s1 10 1 22c0 13 1 23 1 23-1 0-1-10-2-23 0-12 0-22 0-22z" fill="#2c3c42"/><path d="m199 199c1 0 23 19 30 22h1c6 2 12-1 14-7 0 0-1-6-7-10s-10-5-10-5z" fill="#f9b39b"/><path d="m297 70c-1-3-3-6-6-7-2-2-5-4-8-5-3-2-5-3-8-2-2 0-3 1-5 3-3 3-7 7-10 11l39 10c0-3 0-7-2-10z" fill="#f3786d"/><path d="m299 75c-3-1-5-3-8-4-6-2-12-4-18-4-3-1-6-1-9-1 2-3 4-5 6-7s3-3 5-3c1-1 1-1 2-1 2 0 4 1 6 3 3 1 6 3 8 5 3 1 5 4 6 7 1 1 2 3 2 5z" fill="#cc5f52"/><path d="m305 81c-3-4-9-8-14-10-6-2-12-4-18-4-6-1-11-2-17 0-4 1-8 4-9 8 0 3 1 6 3 8s6 6 10 7l33 6c4 1 10-1 12-5 3-4 3-7 0-10z" fill="#f3786d"/><path d="m299 95c0-1 0-3-1-4 0-1 0-2 0-2l-4-9c3 1 6 3 7 6s0 7-2 9z" fill="#cc5f52"/><path d="m260 88c-1 0-3-1-5-2-1-1-2-3-1-5 0-1 1-2 0-3 0-1-1-2-1-3-1-1 0-2 1-3 0 0 1 0 1-1v-1c0-1 0-1 0-1l7 2c0 6-1 11-2 17z" fill="#cc5f52"/><path d="m296 81c1 1 1 3 1 5l-2 25-1 9-13 15-12-13v-4s-10-2-10-12c-1-4 0-14 1-23 0-4 2-8 4-11z" fill="#f9b39b"/><path d="m269 118s6 0 13-4c0 0-3 8-13 7z" fill="#f69775"/><path d="m263 90c0 1 0 1 1 1s2 0 2-1-1-1-2-1c0-1-1 0-1 1z" fill="#2c3c42"/><path d="m262 88s1-1 3-1c1 0 3 1 3 1s0-1-1-1c0 0-1-1-2-1s-2 1-2 1c-1 0-1 1-1 1z" fill="#2c3c42"/><path d="m277 90c0 1 1 2 2 2 0 0 1-1 1-1 0-1 0-2-1-2s-2 1-2 1z" fill="#2c3c42"/><path d="m277 88s1-1 3-1c1 0 3 1 3 1s0 0-1-1c0 0-1 0-2 0s-2 0-2 0c-1 1-1 1-1 1z" fill="#2c3c42"/><path d="m272 99s-1 0-3 0h-1c0-1 0-1 0-2 1-1 1-2 2-3 1-4 2-7 2-7s-1 3-3 7c0 1-1 2-1 3v2h1z" fill="#2c3c42"/><path d="m276 100s0 2-2 3c-1 1-3 1-3 1 0 1 1 1 1 1 1 0 2 0 3-1s1-2 1-2c0-1 0-2 0-2z" fill="#2c3c42"/><path d="m277 82h3c2 1 3 1 4 1 0 0 0-1-1-1-1-1-2-1-3-1s-2 0-2 0c-1 1-1 1-1 1z" fill="#2c3c42"/><path d="m263 83c0 1 1 0 2 0h3s0 0-1-1c0 0-1 0-2 0s-1 0-2 0z" fill="#2c3c42"/><path d="m273 86h2c3 0 7 0 10 1l1 1c-1 1-1 3-2 4 0 2-1 3-2 3-2 1-3 1-5 1-1 0-2-1-3-2-2-1-1-3-1-5 0-1 0-2 0-3z" fill="#2c3c42"/><path d="m274 87h1c3 0 6 0 8 1 1 0 1 1 1 1 0 1-1 2-1 3s-1 2-2 3c-1 0-2 0-4 0-1 0-2-1-2-1-1-2-1-3-1-5 0-1 0-1 0-2z" fill="#42616a"/><path d="m257 85h2c3 0 6 0 9 1h1c0 2 0 4-1 5s-2 3-3 3c-1 1-3 1-4 1-2 0-3-1-4-2s-1-4-1-6c0-1 0-2 1-2z" fill="#2c3c42"/><path d="m258 86h1 8c0 1 1 1 0 2v3c-1 1-1 2-2 2-1 1-3 1-4 1s-2-1-3-2-1-3-1-4 0-2 1-2z" fill="#42616a"/><path d="m296 92c-4-2-7-3-11-5l-1 2 12 5z" fill="#2c3c42"/><path d="m269 88h4l1-1-6-1z" fill="#2c3c42"/><path d="m293 89s6-2 6 5c0 6-7 5-7 5 0-1 1-10 1-10z" fill="#f9b39b"/><path d="m294 96h1s0 1 1 0c0 0 1-1 1-2s0-1 0-2c0 0-1-1-1-1h-1v1s0 0 0-1h1c1 0 1 0 1 1 0 0 1 1 1 2s-1 2-2 3c-1 0-1 0-1-1-1 0-1 0-1 0z" fill="#f69775"/><path d="m289 83c3 3 4 5 7 6h1c0 1 0 2-1 2s-2 0-2 0c-1 0-1 0-1 0v1c1 1 1 2 2 3v2 1c-1 0-2 0-2-1-2-2-3-4-4-7 0-2 0-5 0-8z" fill="#2c3c42"/><path d="m257 71c-2-1-2-2-2-4 1 1 3 2 4 2-1 0-2-1-2-2 3 2 7 3 10 4 1 0 5 1 7 1 1 0-1 1-1 3 0 0-1-1-2-1s-2 0-3 1c-3 0-3 4-6 5-1 0-2 0-4-1-1-1-1-2-1-3-1 0-2-1-3-2-1 0-1-1-1-2 1-1 3 0 4-1z" fill="#2c3c42"/><path d="m298 84c0-1 0-2-1-3 0 0-1-1-1-1-7-4-18-8-26-8l-3 2c3 0 8 4 10 4 1 0 2-1 3 0 1 0 1 1 1 1 2 2 4 2 6 2h1s0 1 1 1c1 3 2 5 4 6 1 1 3 3 4 2 5-2 1-4 1-6z" fill="#2c3c42"/><path d="m283 66c0 1-1 0-1 0-1-1-2-2-3-4 0-1 0-3 0-4s0-1 0-1v1c0 1 0 3 1 4 0 1 1 3 2 3 0 1 1 1 1 1z" fill="#2c3c42"/><path d="m301 89s0 0 0-1-1-3-2-4-2-3-4-4c-1-1-2-1-3-2-2 0-3-1-4-1-5-2-10-4-13-4-2-1-3-1-4-1s-2 0-2 0h2 4c4 1 8 2 13 4 2 1 3 1 4 2 1 0 2 1 3 2 2 1 3 2 4 4 1 1 2 3 2 4z" fill="#2c3c42"/><path d="m282 88s-1 1-2 1c-2 1-3 1-3 1s1-1 2-1c2-1 3-1 3-1z" fill="#2c3c42"/><path d="m279 88s-1 1-2 1c-1 1-2 1-2 1s1-1 2-1c1-1 2-1 2-1z" fill="#2c3c42"/><path d="m310 213c-1-1-2-2-3-3-1-2-2-4-4-6s-5-2-8-5c-1-1-2-3-2-4s0-1 0-1c-1-1-1-1-1-1 0-1 0-1-1-1h1c1 0 1 0 1 1 1 0 0-1 0-1 0-2-2-3-3-3 0 0 0-1-1-1h2c0 1 1 1 1 1 2 1 2 1 2 1v-1c0-1-2-2-3-2 0-1 0-1-1-1s0 1-1 1c0 0 0-1-1-1h1 1 2c0 1 1 1 1 1h1c0-1-1-1-1-1 0-1-1-1-1-1-1-1-1-1-2-1s-1 1-2 1-1 0-1-1c1 0 2-1 3-1 1 1 1 1 2 1v-1c3 5 6 10 10 15 0 1-1 1-1 1v1h1s1 0 1-1c1 2 2 3 3 4 3 3 5 6 6 9 0 0-1 0-1 1zm1 0s1-1 1-1c-1 1-1 1-1 1zm-44-8c0-7-1-14-1-20 0-1 1-1 1-2h-1v-1s1-1 1-2v-1c-1 0-1 1-1 1v-1h1c0-1 0-3 0-3-1 0-1 1-1 1v-1c0-1 0-1 0-1 0-1 0-2 0-2 0 1 0 1-1 1 0-6 0-13 0-19 0-2 0-4 1-4h1 1c0 1 1 1 1 2 0 0-1-1-2-1-1 0-1 1-1 2v1h1c1 0 1 0 2-1v1c0 1-2 0-2 1h1s1 0 2-1v1c-1 1-2 1-2 1-1 0 0 1 1 1 1 0 2-1 2-1v1c-1 0-1 0-1 1-1 0 0 0 1 0h2c-1 1-1 1-1 1v1h1 1c3 3 5 5 7 8 0 2 1 5 1 8-4-5-8-10-13-14-2 9 0 18 0 27-1 0-1 0-1 1h1c0 5-1 10-2 14zm5-42c-1-2-2-3-3-3 0 0 0 1 1 2 0 0 1 1 1 1zm15 20c-1 0 0 0 0-2 1 0 1 0 2-1h1c0 1 1 1 1 2h-1-1c-1 0-2 1-2 1zm-2-1c0-1 0-1 0-2 1 0 1 0 2-1-1 0-1 0-1 0-1 0-1 0-1 0-1 0-1 1-1 1-1-1-1-2-2-3 0-2 0-5 0-8v1c3 3 5 6 7 9s0 0-1 0c-2 1-2 3-3 3z" fill="#cc5f52"/><path d="m282 177c0-3-1-6-1-8h1z" fill="#273136"/><path d="m266 185c0-1 0-2 0-2h1c0 1-1 1-1 2zm0-3c0-1 0-2 0-2s0-1 1-1v1c0 1-1 2-1 2zm0-3s0-1 0-2c0 0 0-1 1-1v3c-1 0-1 0-1 0zm0-3c-1-1-1-1-1-2 1 0 1 0 1-1v2z" fill="#c3746b"/><path d="m293 195c-1-1-1-2-1-2s0 0 1 1zm0-2c0-1 0-1-1-1 0 0 0 0-1 0 0-1 0-2-1-3 1 0 3 1 3 3 0 0 1 1 0 1zm1-3s0 0-2-1c0 0-1 0-1-1-1 0-1 0-2 0 0-1 0-1-1-2 1 0 1 1 1 1 1 0 1-1 1-1 1 0 1 0 1 1 1 0 3 1 3 2zm-1-3s-1 0-1-1c-1 0-2 0-2 0h-1-1c-1-1-2-3-3-4 1 0 1-2 3-3h1c1 1 1 1 1 1h-1c-1 1-1 1-2 1 0 2-1 2 0 2s1-1 2-1h1 1s1 1 1 1v1c-1 0-1 0-2-1-1 0-2 1-3 1 0 1 1 1 1 1 1 0 1-1 2-1s1 0 2 1c0 0 1 0 1 1 0 0 1 0 1 1zm-8-5c0-1 0-1 0-1-1 0-1-1-1-1s0-1 1-1h1 1c-1 1-1 1-2 1z" fill="#c3746b"/><path d="m269 191c-1 0-1 0-1 0 0-1 0-1 1-1z" fill="#273136"/><path d="m302 200c-1 0-1 0-1 0v-1s1 0 1-1c0 1 1 1 1 1 0 1-1 1-1 1z" fill="#273136"/><path d="m272 163h-1s-1-1-1-1c-1-1-1-2-1-2 1 0 2 1 3 3z" fill="#273136"/><path d="m310 213h1c0-1 1-1 1-1s-1 1-1 1 0 0-1 0z" fill="#273136"/><path d="m274 161c-1 0-1 0-1 0h-1v-1s0 0 1-1c0 1 1 1 1 2zm-3-2c-1 0-2 0-1 0 0-1 0-1 1-1v-1l2 2c-1 0-1 0-2 0zm-2-1c-1 0-2-1-1-1 0 0 1 0 2-1 1 0 1 1 1 1s-1 1-2 1zm-1-2c-1 0-1 0-1 0 0-1 2 0 2-1 0-1 0-1 0-1-1 1-1 1-2 1 0 0 0 0-1 0v-1c0-1 0-2 1-2 1 0 2 1 2 1v1c1 0 1 1 1 1-1 1-2 1-2 1zm0-5c-1 0-1 0-1 0z" fill="#c3746b"/><path d="m312 214c-1 0-1-1-2-1h1s0 0 1-1z" fill="#c3746b"/><path d="m310 213h1s0 0-1 0z" fill="#4b5256"/><path d="m267 208h-1c0-1 1-2 1-3z" fill="#cc5f52"/><path d="m250 132 77 102 4-3-75-102z" fill="#42616a"/><path d="m329 229s1 1 2 2c0 0 1 1 1 2 1 0 1 0 1 1v2c-1 1-2 1-3 1s-2-1-2-1c-1-2-1-2-1-2s0 0 1 1 1 1 2 1c1 1 2 0 2-1 1-1 0-1 0-2-1-1-1-2-1-2-1-1-2-2-2-2z" fill="#2c3c42"/><path d="m330 234v1c1-1 1-1 1-1-1 0-1 0-1 0s0-1 1 0c0 1 0 1-1 1-1 0-1-1-1-1z" fill="#2c3c42"/><path d="m295 114s6 7 6 18c0 12 1 64 1 64h-8z" fill="#2c3c42"/><path d="m269 121s-11 3-9 31c1 28 0 49 0 49h7l1-65z" fill="#2c3c42"/><path d="m267 201v2c0 1 0 2-1 3 0 0 0 1-1 1 0 1-1 1-1 1-2 0-3-1-3-2-1-1-1-2-1-3s0-2 0-2v2c1 1 1 2 1 3 1 0 2 1 3 1h1c0-1 1-1 1-1 0-1 0-2 1-3 0-1 0-2 0-2z" fill="#2c3c42"/><path d="m302 195c1 0 1 1 0 3v1s0 1-1 1c0 1 0 1-1 2 0 0-1 0-2 0 0 0-1 0-2 0 0 0-1-1-1-1 0-1-1-2-1-3 0-2 0-3 0-3s0 1 1 3c0 1 0 2 1 2 0 1 0 1 1 2h1c1 0 2-1 3-2s1-2 1-2c0-2 0-3 0-3z" fill="#2c3c42"/><path d="m296 115v1 2 9 28 28 9 2 1s0 0 0-1c0 0 0-1 0-2 0-2 0-5 0-9 0-7 0-17 0-28s0-21 0-28c0-4 0-7 0-9 0-1 0-2 0-2 0-1 0-1 0-1z" fill="#42616a"/><path d="m299 125c1 0 1 15 1 35v35s0-16 0-35c-1-20-1-35-1-35z" fill="#42616a"/><path d="m261 132s1 15 1 34v35c-1 0-1-16-1-35s0-34 0-34z" fill="#42616a"/><path d="m266 123v1 2 9 27c-1 11-1 20-1 27v9 2 1-1c0-1 0-1 0-2 0-2 0-5 0-9 0-7 0-16 0-27s1-20 1-27c0-4 0-7 0-9 0-1 0-1 0-2z" fill="#42616a"/><path d="m264 209s4 19 4 19c1 0 5-1 7-2v-1l27-6-4-19-9 2-2-2c0-1-1-1-2 0l-10 2v4l-3 1v-2s-9-1-8 4z" fill="#2c3c42"/><path d="m276 225s-1-1-1-3c-1-2-1-4-2-7 0-3-1-5-1-7s0-3 0-3 0 1 1 3c0 2 0 4 1 7 0 3 1 5 1 7 1 2 1 3 1 3z" fill="#42616a"/><path d="m293 214s0-1-1-3c0-1-1-3-3-4-1-1-2-1-3-2-1 0-3 0-4 1-2 0-3 1-4 3-1 1-2 3-2 5 0 1 1 3 2 4 1 2 2 3 4 3 1 1 3 1 4 1 1-1 2-1 3-2 2-1 3-3 3-4 1-2 1-2 1-2v2c-1 1-1 3-3 4-1 1-3 2-4 2s-3 0-5 0c-1-1-2-2-4-3-1-2-1-4-1-5 0-2 0-4 1-6 2-1 3-2 4-3h5c1 0 3 1 4 2 2 1 2 3 3 4v2z" fill="#42616a"/><path d="m290 214c0 3-2 5-6 5-3 0-5-2-5-5 0-4 2-6 5-6 4 0 6 2 6 6z" fill="#42616a"/><path d="m283 203-5 2-1-3 6-1z" fill="#42616a"/><path d="m248 203c0-1 0-1 0-1v-1 1z" fill="#949899"/><path d="m248 202c0-3-1-12-1-22 0-4 0-9-1-13 1 5 2 9 3 14l-1 20z" fill="#cc5f52"/><path d="m248 202v-1l1-20c0 7 0 14-1 21z" fill="#cc5f52"/><path d="m246 166c0-1 0-1 0-2v1z" fill="#cc5f52"/><path d="m248 203-1-2c0-12 0-23-1-35v-1 2c1 4 1 9 1 13 0 10 1 19 1 22z" fill="#273136"/><path d="m315 190-16-55-27 11-28 1-24 8-27-5 9 62 29 3 23-11 30 1z" fill="#d7d9d9"/><path d="m315 190s0 0-1 0c0 0-1 0-1 1-2 0-4 1-6 3-5 2-13 6-22 11h-1c-8 0-18-1-30-1-7 3-15 7-23 11-9-1-19-2-29-3-2-17-5-36-8-55 0-2-1-5-1-7 9 2 18 3 27 5 8-3 16-6 24-8 10 0 19-1 28-1 10-4 19-8 27-11 5 17 9 31 12 40 1 5 2 9 3 11 0 1 0 2 1 3v1s0-1-1-1c0-1 0-2 0-3-1-3-2-6-4-11-2-9-6-23-11-40-8 4-17 7-27 12-9 0-18 0-28 0-8 3-16 6-24 8-9-1-18-3-27-5 1 2 1 5 1 7 3 19 6 38 9 54h-1c10 1 20 2 29 3 8-3 16-7 23-10 12 0 22 0 30 1 10-5 18-9 23-11 2-2 4-3 6-3 0-1 1-1 1-1z" fill="#2c3c42"/><path d="m193 182s-1-2-1-3v-2h4l6 3s1 3-1 3c0 0 5 1 5 2v3s2-1 1 1v2c-1 0-3 0-3 0s1 2 0 3c-2 2-4 2-4 2l1 4s-7-2-8-3c-1-2-1-3-1-3s0-1 0-2c-1-1 0-3 0-3s-1 0-1-2c1-1 1-3 3-4z" fill="#f9b39b"/><path d="m204 192s-3 0-5 1c-3 0-6 1-6 1s2-1 5-2c3 0 6-1 6 0z" fill="#f69775"/><path d="m206 188s-3 0-6 0c-4 0-6 1-6 1s0-1 1-1 3-1 5-1 3 0 4 1z" fill="#f69775"/><path d="m201 183s-1 0-3 0-3 0-3 0h3z" fill="#f69775"/><path d="m199 183s-1 0-3-1c-1 0-2-1-2-1s1 0 3 1c1 1 2 1 2 1z" fill="#f69775"/><path d="m231 215s-3-14-6-30c-3-17-5-30-5-30s3 13 6 30c3 16 5 30 5 30z" fill="#2c3c42"/><path d="m254 204s-3-13-5-28c-3-16-5-29-5-29s2 13 5 28c3 16 5 29 5 29z" fill="#2c3c42"/><path d="m284 205s-3-13-7-29c-3-16-5-29-5-29s3 13 6 29 6 29 6 29z" fill="#2c3c42"/><path d="m299 170v-4l5-6h9s3 1 2 3c0 0 3 1 3 3v1l1 2s2 0 2 2v2s2 0 2 2c-1 2-11 6-11 6s-6 1-7 1v-1s-3 1-4 0-1-2-1-2l6-5 7-3h-3l-6 2s-3 5-5 4c-1 0-1-2-1-2v-1l1-2z" fill="#f9b39b"/><path d="m318 168 20 6c5 2 9 6 11 10 2 3 2 6 2 7-1 4-5 8-5 8s-13-1-17-4-7-9-7-9l-9-6z" fill="#f9b39b"/><path d="m317 175s-2 2-6 3c-3 2-6 2-6 2s2-1 6-2c4-2 6-3 6-3z" fill="#f69775"/><path d="m311 164s-4 1-7 3-4 5-4 5 0-1 1-2c0-1 1-2 3-4 2-1 3-1 5-2z" fill="#f69775"/><path d="m318 169s1 1 1 2 0 2 1 2v3c-1 1-1 2-2 3-1 0-2 1-2 1-2 0-2 1-2 1s0-1 2-1c0-1 1-1 2-2 0 0 1-1 1-2s0-2 0-3c0 0 0-1 0-2-1-1-1-2-1-2z" fill="#f69775"/><path d="m468 461s-104 0-232 0-232 0-232 0h232z" fill="#2c3c42"/></svg>