<svg clip-rule="evenodd" fill-rule="evenodd" height="5.49119in" image-rendering="optimizeQuality" shape-rendering="geometricPrecision" text-rendering="geometricPrecision" viewBox="0 0 401 518" width="4.247in" xmlns="http://www.w3.org/2000/svg"><path d="m209 34c106 0 192 86 192 192s-86 192-192 192-192-86-192-192 86-192 192-192z" fill="#79a7a7" fill-opacity=".2"/><path d="m276 491c11 13-54 33-111 26s-160-2-165-23 129-22 162-22c34 0 92-6 114 19z" fill="#e0dfde"/><path d="m189 352c0-3 1-5 1-7s1-7 0-8-11-2-12-3c1-3-5-7-3-8 1 0 2-3 3-3s19 2 21 7c1 2 0 11-1 13-1 3-1 6-2 9z" fill="#666767"/><path d="m154 344c0-2 1-4 2-6 0-3 1-5 3-5 3-1 7-1 9 0 9 2 10 1 14 2h2s-1-1-1-1c1-3 1-6 1-9h-1v-1c-6-2-12-1-18-3-3-1-9 0-12 2-1 2-3 6-3 9-1 2-2 6-3 9z" fill="#666767"/><path d="m94 482c2 1 5 2 7 2 20 2 41 5 61 8 10 1 21 2 32 3 8 0 19 0 21-14 6-34 13-68 18-102 1-7 1-15-2-20s-8-6-13-7c-14-2-28-3-42-5-14-1-27-6-42-8-9-1-28 0-31 21-4 21-23 103-16 117 2 3 4 4 7 5z" fill="#f8cdae"/><path d="m139 458c2 0 5 0 8 1v-1-1c-3 0-5 0-8-1 0 0-1 1-1 1s0 1 1 1zm15 2c3 0 6 0 8 1 1 0 1 0 1-1 0 0 0 0-1-1-2 0-5 0-7-1-1 0-1 1-1 1zm16 2h8c0 1 1 0 1 0s0-1-1-1c-2 0-5 0-8-1v1zm16 1c3 0 6 0 8-2v-1h-1c-2 1-4 2-7 2h-1c0 1 1 1 1 1zm12-9c0-3 1-6 1-8 0-1 0-1 0-1-1 0-1 0-1 0-1 3-1 6-2 8 0 1 1 1 1 1zm3-16c0-3 0-5 1-8 0 0 0-1-1-1v1c-1 2-1 5-2 8h1c0 1 0 0 1 0zm2-16c1-2 1-5 2-8 0 0 0 0-1 0-1 3-1 5-2 8 0 0 0 1 1 1 0 0 0 0 0-1zm3-15c1-3 1-6 1-8 1-1 0-1 0-1s-1 0-1 1c0 2-1 5-1 7v1zm3-16c0-1 0-2 0-4 0-1 0-3-1-4 0-1 0-1 0-1-1 0-1 1-1 1 0 1 1 3 1 4 0 2-1 3-1 4 0 0 1 0 1 1 0 0 1-1 1-1zm-6-15c-1 0-3-1-4-1s-2 0-4 0v1h4c1 1 3 1 4 2 0 0 0 0 1-1 0 0 0 0-1-1zm-15-2c-3-1-6-1-8-1-1 0-1 0-1 0v1c3 0 6 1 8 1 1 0 1 0 1-1zm-16-2c-3 0-5-1-8-1 0-1-1 0-1 0s0 1 1 1c2 0 5 1 8 1 0-1 0-1 0-1zm-16-3c-2-1-5-1-8-2v1 1c3 0 5 0 8 1 0 0 1 0 1-1 0 0 0 0-1 0zm-16-1c-2 0-5 1-7 3v1h1c2-2 4-3 7-3v-1s0-1-1 0zm-11 10c-1 1-1 1-1 2 0 2 0 3-1 6 0 0 0 1 1 1v-1c1-2 1-4 1-6 1 0 1-1 1-2 0 0 0 0-1 0 0-1 0 0 0 0zm-4 16c0 2-1 5-1 7v1h1c1-3 1-6 2-8 0 0 0-1-1-1 0 0 0 0-1 1zm-3 15c0 3-1 5-1 8v1c1 0 1 0 1-1 1-2 1-5 2-8 0 0 0 0-1 0zm-2 16c-1 3-1 5-1 8-1 0 0 0 0 0 0 1 1 0 1 0 0-3 1-5 1-8 0 0 0-1-1-1zm-2 16v4 4h1c0-2 0-3 0-4 0-2 0-3 0-4s0-1-1-1zm5 14c1 1 3 1 5 1 1 0 2 1 3 1 0 0 1-1 1-1s-1-1-1-1c-1 0-2 0-3 0-2 0-3 0-5-1-1 1 0 1 0 1z" fill="#fefefe"/><path d="m87 477c-2-4-2-14 0-27 1 0 3 0 5 1s5 3 7 5c5 7 7 18 5 28-1 0-2 0-3 0-2 0-5-1-7-2-3-1-5-2-7-5z" fill="#593433"/><path d="m126 355c-1 3-3 5-5 8-3 2-6 4-9 5-4 1-7 2-11 2 1-4 2-8 2-10 3-19 19-21 28-21-1 6-2 11-5 16z" fill="#593433"/><path d="m200 474c3-7 9-12 15-15 1-1 3-1 5-2-2 8-3 16-5 24-2 14-13 14-21 14 1-2 1-5 1-7 1-5 3-10 5-14z" fill="#593433"/><path d="m214 352h4c5 1 10 2 13 7s3 13 2 20c0 3 0 5-1 8-3 0-6-1-8-3-6-3-11-11-11-20 0-4 0-8 1-12z" fill="#593433"/><path d="m86 466c0-24 10-71 15-96-5 25-15 72-15 96zm17-106v-1zm0-1s0 0 0-1zm0-1c0-1 0-1 0-1zm0-1h1zm1 0c0-4 2-6 3-8-1 2-3 4-3 8z" fill="#d5cac9"/><path d="m196 495s-1 0-2 0c-11-1-22-2-32-3-20-3-39-6-58-8 0-2 0-3 1-5 1 0 3 1 4 1 21 2 42 4 62 7 7 0 15 2 24 2 0 2-1 4-1 6zm-103-13c-2-1-4-2-6-5 2 3 4 4 6 5zm-6-5c-1-2-1-6-1-11 0-24 10-71 15-96h1c2 0 4 0 6-1-4 23-12 60-14 83-1 0-2-1-2-1-2-1-4-1-5-1-2 13-2 23 0 27zm15-110c0-3 1-5 1-7 0 2-1 4-1 7zm1-7v-1s0 0 0-1c0-1 0-1 0-1h1c0-4 2-6 3-8 2-2 3-4 5-5-4 3-8 8-9 16z" fill="#d0a48c"/><path d="m104 484c-1 0-2 0-3 0-2 0-5-1-7-2-1 0-1 0-1 0-2-1-4-2-6-5-2-4-2-14 0-27 1 0 3 0 5 1 0 0 1 1 2 1-1 10 0 17 2 21 1 3 3 4 6 5 1 0 2 1 3 1-1 2-1 3-1 5z" fill="#4c2f2e"/><path d="m102 370h-1c0-1 0-2 1-3 0-3 1-5 1-7 1-8 5-13 9-16 5-4 12-5 17-5-10 2-17 10-18 16-1 4-1 8-3 14-2 1-4 1-6 1z" fill="#4c2f2e"/><path d="m198 495c-1 0-1 0-2 0 0 0-1 0-2 0 0-2 1-4 1-6h8 9c-3 5-9 6-14 6z" fill="#4c2f2e"/><path d="m213 362c-13 0-26-3-39-5-10-1-19-2-28-3-5-1-9-1-14-2-1 0-2 0-3 0s-1 0-1 0c0-2 1-3 1-4 3 0 6 1 9 1 10 2 19 3 29 4 10 2 21 4 31 5 5 1 10 1 15 1z" fill="#d0a48c"/><path d="m124 354c-1 0-2-1-2-2 1-3 4-4 7-4 0 1-1 2-1 4-1 0-2 0-3 2z" fill="#4c2f2e"/><path d="m216 362c-1 0-2 0-3 0 0-1 0-2 0-3 5 1 10 1 14 2 1 0 1 1 0 1-3 0-7 0-11 0z" fill="#4c2f2e"/><path d="m34 75c1 0 3 1 5 1 1 0 1 0 2-1 2 0 2-2 3-3 1-3 3-7 4-10 2-6-10-9-12-5-2 3-8 16-2 18z" fill="#fbc1a2"/><path d="m75 8c-8 10-13 22-16 35s1 26 8 38c0 0 0 0 0-1-7-12-10-24-7-38 3-12 7-24 15-34z" fill="#00736f"/><path d="m68 20c-4 9-7 18-6 28 2 9 7 16 14 21 0 0 1 0 0 0-6-6-12-13-13-22s2-18 6-27z" fill="#00736f"/><path d="m127 132c-14-1-28-7-39-17-11-9-19-22-24-36-1-6-3-12-3-18 0-5 1-10 2-15 1-8 2-15 4-22 2-5 3-10 6-14s8-7 13-7c3-3 6-3 10-3 12 1 24 8 29 19 7 12 6 28 9 42 3 10 8 20 15 27 3 3 6 5 7 9 4 6 3 15-2 21-5 5-13 8-20 8-1 1-2 1-3 2-1 0-2 1-3 1 0 1-1 1-1 2z" fill="#79a7a7"/><path d="m104 56c-2 18 13 31 24 42-10-12-25-24-23-41 0-1 0-1-1-1z" fill="#00736f"/><path d="m103 60c-2 13 6 26 15 36v-1c-8-10-16-21-14-35z" fill="#00736f"/><path d="m81 87c1-1 2-4 2-6 1-4 2-9 2-13 0-1-1-1-1-1 3 0 6 0 8-1 2 0 3-1 5-1 2-1 4-5 6-7-1 2-1 6-2 8 0 4 0 9 1 13s3 8 7 11c-6 5-14 7-21 6-2 0-3 0-4-1-3-2-5-5-3-8z" fill="#fbc1a2"/><path d="m70 37c3-16 19-24 31-20 11 3 17 19 12 34-3 12-12 24-30 22-10-1-16-21-13-36z" fill="#fbc1a2"/><path d="m122 50c1 4-4 11-7 12-3 0-6-3-5-8 2-4 2-8 5-8 3-1 7 0 7 4z" fill="#fbc1a2"/><path d="m113 51c1-1 1-2 2-2s2-1 2 0c1 1 2 2 1 3 0 1-1 3-2 5-1 0-4 1-4 0-1-2 1-5 1-6z" fill="#eb8267"/><path d="m84 53c-1 0-1 0-2-1 0 0-1-1-1-2s0-2 1-2c0-1 1-1 1-1h1s1-1 1-2c0 0 1-1 1-1 0-2 1-3 1-4v4c0 1-1 1-1 2s-1 2-2 2h-1v1c-1 0-1 0-1 1s0 1 1 2c0 0 1 0 1 1z" fill="#d89672"/><path d="m94 44c-1 1 0 3 1 3 2 1 3 0 4-1s0-3-1-3c-2-1-3-1-4 1z" fill="#313333"/><path d="m76 40c0 1 1 3 2 3s3 0 3-2c1-1 0-3-1-3-2 0-3 0-4 2z" fill="#313333"/><path d="m74 34c2-2 8-3 9 1h-1c-1-1-2-2-4-2-1 0-3 1-4 2z" fill="#282828"/><path d="m74 34v1c1-1 3-2 5-2h2c1 0 1 1 1 2-1-1-2-2-3-2s-1 0-1 0c-1 0-3 1-4 1v1-1 1-1 1c1-1 3-1 4-2h1c1 0 2 1 3 2h1c0-1-1-2-2-2 0-1-1-1-2-1-2 0-4 1-5 2v1z" fill="#282828"/><path d="m102 43c0-3-5-8-7-5-1 0-1 0 0 0s3 0 4 1 2 2 3 4z" fill="#282828"/><path d="m102 43v-1c0-1-1-2-2-3s-2-2-4-2c0 0-1 0-2 0v1h1 1c1 0 2 0 3 1s2 2 2 4h1v-1 1-1 1-1 1-1 1-1c-1-1-2-2-3-3s-2-1-3-1h-1c0-1 1-1 1-1 1 0 3 1 4 2s1 3 2 4z" fill="#282828"/><path d="m95 44v1h2c0-1 0-1-1-1 0-1-1 0-1 0z" fill="#fefefe"/><path d="m77 39c0 1 0 1 1 2 0 0 1 0 1-1 0 0 0-1-1-1z" fill="#fefefe"/><path d="m91 59c-2 0-4-1-8-2-1 0-2 1-2 2 1 3 2 5 6 6 3 1 5-2 6-4 0-1-1-2-2-2z" fill="#fefefe"/><path d="m113 46s-8-8-15-10c-7-3-11-4-11-4s-1-4 0-8c0 0-2 5-3 7 0 0-8 0-11 2l9-22 20 2 14 10 5 11z" fill="#79a7a7"/><path d="m88 18c0 5 0 10 2 14h1c-2-4-3-9-2-14z" fill="#00736f"/><path d="m89 20c2 7 6 12 11 17-5-5-8-11-10-17z" fill="#00736f"/><path d="m91 19c3 4 6 7 10 10 5 4 11 8 10 16 0 0 1 0 1-1 0-4-2-8-5-11-5-5-11-9-16-15z" fill="#00736f"/><path d="m123 15c4 5 6 11 9 17 2 7 2 15 3 22 1 16 11 29 20 42 0 0 1 0 0-1-4-6-9-13-13-21-2-3-4-7-5-11-2-4-2-9-2-14-1-6-1-13-4-19-2-5-4-10-8-15z" fill="#00736f"/><path d="m114 7c9 6 15 16 20 26 5 11 6 23 9 35 2 4 3 8 6 12 3 3 7 6 9 10 4 5 4 12 2 18s-8 13-15 13c8 1 14-8 16-16 1-4 1-8-1-12-1-3-3-6-5-8-3-3-6-6-8-10-3-5-4-11-5-17-3-10-5-19-9-28-5-9-11-18-19-24 0 0-1 1 0 1z" fill="#00736f"/><path d="m107 491s2 1 2 4c1 2 0 4-2 4-5 0-13 1-19 0-7-2-8 1-18 1-10-1-20-1-21-7l42-3z" fill="#56302f"/><path d="m143 506s-1 3 0 5c2 2 11 3 19 0 8-4 10-14 13-18s10-8 10-11c1-4 2-9-3-11l-20 22z" fill="#56302f"/><path d="m101 457c0 1-1 13 1 17l-9 10-20 4 3-8 7-6s4-12 1-21c-1-7 17 4 17 4z" fill="#2b3038"/><path d="m177 466s-7-8-8-17-14 5-14 5 5 7 3 18c-1 12 6 18 10 14 5-3 9-20 9-20z" fill="#2b3038"/><path d="m108 493c1-1 0-6-1-9-2-4-3-8-5-12-3 3-6 6-9 7-2 1-4 2-5 2-3 1-5 1-7 1 1 0 1-1 2-1 1-1 1-2 1-3 1-1 0-3-1-4-1 0-2-1-3-2-1 0-2-1-3 0-1 0-1 1-1 1-2 2-3 4-5 6-3 3-7 4-11 6-1 0-3 0-5 1-1 0-2 0-3 1-2 1-3 3-3 6 0 0 17 5 59 0z" fill="#79a7a7"/><path d="m175 463v3c-2 4-4 8-7 12 1-3 1-5 1-7 0-1 0-2 0-3-1-2-2-3-4-3s-3 0-5 1-3 2-5 2c0 0-1 0-2 1v2c0 2 0 3 1 5v1c0 2 0 4-1 7 0 3-2 6-3 9-2 2-3 5-5 8-1 1-2 2-2 4-1 2 0 4 1 4 0 0 14 3 21-4 6-7 4-13 9-18s10-10 9-14-8-10-8-10z" fill="#79a7a7"/><path d="m63 438c-2 1-2 4-2 6-1 4-1 7-1 10 10 2 19 4 29 5 9 0 19 0 28-5 0-6-4-11-4-17-1-20-1-42-2-63 5 21 12 41 22 61 1 3 3 7 2 10h1c1 4 1 9 2 13 10 3 22 0 31-7 6-4 10-10 14-16-9-30-28-57-30-89-2-40-5-80-19-117-3-8-9-13-11-21-1-6-1-13 0-19 0 0 0 0 0-1 0 0-1 1-1 1-10-2-20-4-31-5-7 0-14 0-20 2 0 5 0 9-1 14 0 2 0 5-2 7-9 14-9 33-9 50-1 7 0 14 0 21 1 53 2 107 4 160z" fill="#f58557"/><path d="m111 440c-8 2-16 4-24 3-8 0-16-2-23-4-1 0-1 0-1 0 7 4 16 5 23 5 9 1 17-1 25-4z" fill="#66423a"/><path d="m137 446c3 1 6 0 9-1 4-1 7-2 11-4 5-2 13-6 16-12 0 0 0 0-1 0-3 5-9 8-15 11-3 1-6 2-9 3s-7 3-11 2c0 0-1 0 0 1z" fill="#66423a"/><g fill="#282828"><path d="m121 204c-17-5-34-6-50-3v1h1c1-1 1-1 0-1h-1c-1 0-1 1 0 1 17-2 33-2 49 2z"/><path d="m90 192c-2 1-4 3-3 6 0 2 3 3 5 2-2-1-4 0-4-2-1-3 0-4 2-5 1 0 0-1 0-1z"/><path d="m92 196c1 0 1 1 0 1h-1v-1c0-1 1-1 1-1v-1c-2 1-3 4-1 4 1 0 2 0 2-1 1-1 0-2-1-2z"/><path d="m87 201c-2 9-2 18-3 27 0 9 0 18 1 26 0 1 1 1 1 0 0-8-1-17 0-26 0-9 1-18 1-27z"/><path d="m83 202c-1 7-2 14-3 21-1 5 0 9 5 10-3-3-4-4-4-8 0-3 1-5 1-8 1-5 1-10 2-15 0-1-1-1-1 0z"/><path d="m88 255c4-1 9-2 14-3-5 0-10 1-15 2 0 0 0 1 1 1z"/><path d="m85 256c-3-5-7-9-12-10-1-1-1 0 0 0 4 2 9 6 11 11 1 0 1 0 1-1z"/><path d="m86 254c-2-4-5-8-8-11v1c3 3 5 7 7 10 0 1 1 1 1 0z"/><path d="m87 256c5 2 11 5 16 9-5-4-10-8-16-9-1 0-1 0 0 0z"/><path d="m114 205c2 8 8 18 16 20 0 0 1 0 0-1-3-2-7-4-9-7-3-3-5-8-6-12z"/><path d="m74 202c-1 5-2 9-4 14-1 4-4 7-8 10 0 0 0 1 0 0 9-3 11-15 12-24z"/><path d="m110 373c-4-19-9-38-13-57-3-10-4-20-5-29-1-10-3-19-5-28 2 10 4 20 5 30 1 9 2 18 4 27s4 19 6 28c3 10 5 19 7 29z"/></g><path d="m57 64c1 0 3 1 4 1 2-1 3-3 3-5 1-4 2-9 1-14 0-1 0-2-1-2-1-1-2-2-3-2-8-2-16-4-23-5-4 4-5 10-2 14 2 4 7 6 11 8z" fill="#f58557"/><path d="m32 41c-1 3-1 7-1 11v2c1 2 3 4 5 5 7 3 15 5 23 5 0 0 1-1 1-1s1-1 1-1c1-4 1-8 1-12 0-1-1-2-1-3-1 0-2-1-2-1-7-3-14-6-21-8-1 0-2 0-3 0s-2 0-3 1v2c-1 1-1 2-2 2z" fill="#009a97"/><path d="m47 72c-1-2-2-4-2-7-1-1-1-3 0-5 0-4 0-8 1-12 1 0 1-1 2-1 0 0 1 1 1 1 0 3-1 6-1 9 1-5 6-14 8-14v1c1 1 0 3-1 4 2-2 4-5 6-4 0 1 0 3-1 4 0-1 1 0 2 1 0 0-1 1-1 2-1 2-1 5-1 8 0 1 1 3 1 4 1 1 1 3 2 1 1 0 1-1 1-2s1-3 1-4-1-2 0-3c0 0 1 1 1 1 1 2 2 5 3 7 0 3-1 6-3 7-2 3-6 4-6 7v3c1 3 2 7 2 10v2c-1 1-1 1-1 2-3 2-8 4-11 0-1 0-1-1-1-2-2-4-1-6-1-10 1-3 0-7-1-10z" fill="#fbc1a2"/><path d="m37 34s0-1 1-1h1 2 1c1 0 1 1 1 2s0 3-1 4c0 1-4 0-4-1-1-1-1-2-1-4z" fill="#009a97"/><path d="m38 38c1 2 4 2 5 3 4 1 7 2 11 3-3-2-5-3-8-3-3-1-5-2-8-3z" fill="#352e2e"/><path d="m45 51c0 3-2 5-5 5s-5-2-5-5c0-4 2-6 5-6s5 2 5 6z" fill="#00736c"/><path d="m43 51c0 3-2 5-5 5s-6-2-6-5c0-4 3-6 6-6s5 2 5 6z" fill="#75cbca"/><path d="m43 51h-1c0 1 0 2-1 3s-2 2-3 2c-2 0-3-1-3-2-1-1-2-2-2-3 0-2 1-3 2-4 0-1 1-2 3-2 1 0 2 1 3 2s1 2 1 4h1 1c0-2-1-4-2-5s-3-2-4-2c-2 0-3 1-4 2-2 1-2 3-2 5 0 1 0 3 2 4 1 1 2 2 4 2 1 0 3-1 4-2s2-3 2-4z" fill="#282828"/><path d="m26 42s0-1 0-2c-1 0-1-1 0-1 0-1 1 0 2 0 0 0 0 1 1 1 0 0 1 0 1 1-1-1-1-2-2-3 0 0 0 0 0-1 0 0 1-1 2-1l2 2c-1-1-2-3-1-4h2c1 0 2 1 2 1 2 2 3 5 4 7 0 1 0 1-1 1 0 1-1 0-1 0-1-1-2-2-2-3 1 1 1 2 1 4 1 0 1 0 0 1 0 0 0 0-1 0 0 0 0 0-1-1 0 0-1-1-1-1 1 1 1 2 1 4v1c-1 0-1 0-1 0-3-1-5-4-7-6z" fill="#fbc1a2"/><path d="m43 34c0-1-1-1-1-1-1 1-3 1-4 1-1-1-2-2-3-3 0 0 0 0 0-1h2c1-1 3-1 4-2s2-1 3-1c2 0 3 1 3 2 1 2 2 4 2 6 0 1 1 2 0 3v1c-1 0-1 0-2 0s-3-1-4-1v-1c1-1 0-2 0-3z" fill="#fbc1a2"/><path d="m60 83s0-1 1 0h1v2c1 1 1 3 1 4 1 1 1 2 0 3 0 1-2 1-3 2-3 1-6 1-9 1-2 0-2 1-4 1l-2 1c0-2-1-5-1-7 1-2 2-4 4-4h1c2 0 3-1 4-1 1-1 3 0 4 0s1-1 2-2z" fill="#b9aeb0"/><path d="m82 78h2v1c-1 2-1 4 0 6 0 2 2 4 3 5 2 1 5 1 7 0 2 0 3-1 4-2 2-1 3-3 3-5 1-2 1-3 1-5-1-1-1-1-1-2h2c13 0 24 11 28 22 7 24 9 53 3 77-2 5-3 9-4 14s-3 15-9 14c-7-2-12-6-19-6-9 0-17-1-26 1-6 2-11 6-17 1-3-3-5-7-5-12 0-7 4-13 7-20s3-14 3-21c0-12-2-23-2-34 0-5-1-11 0-16 1-8 7-14 15-16 2-1 3-1 5-2z" fill="#2b3038"/><path d="m29 65s1-1 1-2c1 0 2 0 3 1v1c1 1 2 1 3 0h3c1 1 1 1 1 2 2 1 6 1 6 3 1 1 0 2 0 3-1 0-1 2-2 2 0 0 0 0-1 0-2-1-4-2-6-3-1-1-2-1-3-1-1-1-1-1-2-1-2 0-3 0-5 0 0-1 1-4 2-5z" fill="#b9aeb0"/><path d="m78 119c-1 5-7 11-11 14-3 2-7 5-11 7-1 0-3 1-4 1-5 2-11 3-16 4-4 0-8 1-12 1-2 0-5 0-7-1-8-2-7-12-7-20 0-2 1-3 1-4 1-10 3-20 7-30 2-6 5-13 8-20 2-3 2-3 5-2 4 1 8 3 12 4 0 0 0 1 1 1v2c0 7-3 14-3 25 2-1 3-2 5-3 5-3 11-6 17-7h1c1-1 3-1 4 0s1 2 1 2c1 2 2 4 2 5 2 5 4 9 6 14 1 2 2 5 1 7z" fill="#2b3038"/><path d="m130 125c1 3 1 6 1 8 0 3-2 5-4 7-4 5-8 9-12 13-3 3-5 5-8 6-1 1-2 1-3 2-4 2-9 4-13 5-5 2-10 3-15 2-3-1-6-4-9-7 0-1-1-2-2-3-3-6-6-12-9-18-3-8-5-17-7-26-1-4-2-8-2-12-1-1-1-2-1-3v-1c0-1-1-2 0-2 0-1 4-2 5-2 4-2 7-4 11-3h1c0 2 1 3 1 4l7 3c6 2 12 5 18 7 11 4 22 8 32 13 2 0 4 1 6 2 2 0 3 3 3 5z" fill="#2b3038"/><path d="m73 482c0-2 0-5 0-8 0-2 0-6 1-8 3-1 4 0 4 2v2c0 2 0 3-1 5s-3 4-4 6v1c1-2 2-4 4-5 0-1 1-2 2-2 0 0 1-1 2-1 2-1 3 1 3 5-1 1-3 2-5 2-2 1-4 2-6 2v1c3-1 16-4 12-9-4-6-11 3-12 6v1c3-4 5-7 6-11 0-2 0-6-3-7-6-3-4 16-3 18 0 1 0 1 0 0z" fill="#79a7a7"/><path d="m159 485c-2-2-4-4-6-6-1-1-2-2-3-4-1 0-1-1-1-1 0-4 1-5 3-4 5 2 5 11 5 15h1c-1-2-1-4-1-6 0-1 1-2 1-3 0 0 0-1 1-1 0-2 2-2 5 0 0 1-1 4-2 6 0 1-2 3-3 5 0 0 0 1 1 1 2-3 9-14 3-15-7-2-7 9-6 13h1c0-4 0-8-2-12-2-2-4-4-7-4-7 1 8 15 9 17 0 0 1 0 1-1z" fill="#282828"/><path d="m43 34c-1 1-1 2-1 3v2 1c1-1 1-2 1-3s0-2 0-3z" fill="#352e2e"/><path d="m62 50v5c0 1-1 3-1 5 1-1 1-3 1-5 1-2 1-4 0-5 0-1 0 0 0 0z" fill="#352e2e"/><path d="m43 38c3 1 6 2 9 2 3 1 8 1 10 3 3 2 3 9 3 13-1 1-1 3-1 4s0 2-1 2c-1 1-2 0-2-1s0-1 0 0 0 5 2 3c2-1 2-5 2-7 1-2 1-5 0-8 0-4-1-7-5-8-6-2-12-3-17-4-1 0-1 1 0 1z" fill="#352e2e"/><path d="m115 46s-3-1-11 8c0 1 2 1 2 1s4-6 6-7c1-1 3-2 3-2z" fill="#282828"/><path d="m102 64 8-5h5s-12 7-14 8c1-2 1-3 1-3z" fill="#282828"/><path d="m68 45v2c1 1 1 3 1 5 1 9 5 18 13 21 6 2 16 0 21-5 0-1 3-2 3-3 1-1 2-2 2-3s0-1 0-2v-1l-1-5c0-1-1-1-1-1-4-3-20-11-38-8z" fill="#282828"/><path d="m110 343c2 5 9 5 12 1 0 0 0-1-1 0-3 2-8 3-10-2-1 0-1 0-1 1z" fill="#282828"/><path d="m71 349c0 5 11 2 14 1 0 0 0 0-1 0s-12 2-12-1c1-1-1-1-1 0z" fill="#282828"/><path d="m110 289c3-4 9-4 15-4 5 0 12 0 17-2v-1c-4 1-8 2-12 2-3 0-6 0-10 0-4 1-8 1-11 5z" fill="#282828"/><path d="m111 288c3 15 7 30 11 45 0 2 1 4 2 5 2 1 5 1 7 1 6 0 12 1 18 0v-1c-6 0-11 0-16 0-3 0-8 1-9-2-2-3-2-7-3-10-4-13-7-26-10-39z" fill="#282828"/><path d="m120 293c1 2 2 5 3 7 0 2 0 3 1 4 2 3 7 1 10 1s7 1 10-1 1-6 3-8c0-1 0-1-1-1-1 1-1 2-1 4-1 2-1 4-3 5-2 0-4 0-6 0s-3 0-5 0c-3 1-5 1-7-2 0-1-1-3-1-4-1-2-1-4-2-5 0-1-1 0-1 0z" fill="#282828"/><path d="m129 300c2 0 5 0 7-1 1 0 1-1 1-1-1-1-2-2-4-2-1 1-2 3-1 4h1c0-1-1-2 0-2 1-1 2-1 3 0-2 1-5 1-7 1-1 0-1 1 0 1z" fill="#282828"/><path d="m50 97c3-1 7-2 10-3v-1c-4 1-8 2-11 3 0 1 0 1 1 1z" fill="#787979"/><path d="m28 73c5 0 9 1 13 4 0 0 1-1 0-1-3-3-9-4-13-4z" fill="#787979"/><path d="m131 119c-4 9-9 18-15 26-6 7-12 16-21 19-1 0 0 1 0 1 9-3 16-12 22-20s11-16 15-25c0 0-1-1-1-1z" fill="#787979"/><path d="m45 96c0 8 2 16 4 24 2 7 5 15 8 22 2 6 5 12 9 17 4 4 9 9 15 7-8 1-14-6-18-13-3-5-6-11-8-18-4-12-8-25-9-38 0-1-1-1-1-1z" fill="#787979"/><path d="m63 92c5 12 15 23 22 34h1c6-5 9-13 14-18v-1c-4 3-6 7-8 11-1 2-3 5-5 6s-2 0-3-1-1-2-2-3c-7-10-14-19-19-29z" fill="#787979"/><path d="m127 136c0 3 0 6 1 9 0 3 1 6 1 9 0 1 0 1 0 0 0-6-1-12-1-18z" fill="#787979"/><path d="m92 97c7-1 13-7 14-14-3 7-7 11-15 14z" fill="#787979"/><path d="m47 72c0-2-1-3-2-5 0-1 0-3-1-5 0 4 1 7 3 10z" fill="#f79c73"/><path d="m48 57v2 1c1 0 1-1 1-2 0 0 0-1-1-1z" fill="#f79c73"/><path d="m56 47c-2 3-4 8-3 11 1-2 1-4 1-6 1-1 2-3 2-5z" fill="#f79c73"/><path d="m60 47c-3 3-4 7-4 11 1-2 1-4 2-5 0-2 2-4 2-5s0-1 0-1z" fill="#f79c73"/><path d="m30 40c0 1 1 2 1 2 1 1 1 2 2 2 0 0 1 0 0 0 0-1-1-2-1-2-1-1-1-2-2-2z" fill="#f79c73"/><path d="m31 37c1 1 2 2 2 2 1 1 1 2 2 2 0-2-2-3-3-4-1 0-1 0-1 0z" fill="#f79c73"/><path d="m41 100c-1 1-3 2-5 4-1 1-3 2-4 4 0 0 0 1 1 0s2-2 4-3c1-2 3-3 5-4 0 0 0-1-1-1z" fill="#787979"/><path d="m85 126c1 2 2 4 3 7 0-3-1-5-2-8 0 0-1 0-1 1z" fill="#787979"/><path d="m10 28c2 1 4 2 7 3-2-2-4-3-6-4-1 0-1 0-1 1z" fill="#b9aeb0"/><path d="m16 21c2 1 4 3 5 6 0-3-2-5-4-7 0 0-1 1-1 1z" fill="#b9aeb0"/></svg>